<svg xmlns="http://www.w3.org/2000/svg" xmlns:xlink="http://www.w3.org/1999/xlink" width="500" zoomAndPan="magnify" viewBox="0 0 375 374.999991" height="500" preserveAspectRatio="xMidYMid meet" version="1.0"><defs><clipPath id="ad1e33edf5"><path d="M 0 36.242188 L 371 36.242188 L 371 354 L 0 354 Z M 0 36.242188 " clip-rule="nonzero"/></clipPath><clipPath id="a97563d801"><path d="M 29 36.242188 L 308 36.242188 L 308 171 L 29 171 Z M 29 36.242188 " clip-rule="nonzero"/></clipPath></defs><g clip-path="url(#ad1e33edf5)"><path fill="#f3bbc1" d="M 249.261719 123.257812 C 249.257812 123.25 249.257812 123.246094 249.253906 123.238281 C 249.285156 123.15625 249.332031 123.078125 249.363281 122.996094 C 249.328125 123.082031 249.296875 123.171875 249.261719 123.257812 Z M 335.144531 201.859375 L 290.574219 183.9375 L 291.355469 170.429688 C 291.355469 170.429688 306.1875 152.039062 307.722656 138.144531 C 309.226562 124.566406 302.644531 112.433594 287.996094 109.296875 C 273.351562 106.15625 254.421875 106.339844 250.171875 117.070312 C 249.464844 118.847656 249.457031 120.480469 249.832031 121.949219 C 250.355469 123.984375 251.632812 125.691406 253 127.011719 C 252.804688 128.128906 252.632812 129.175781 252.46875 130.039062 C 251.917969 132.9375 247.386719 135.699219 243.742188 137.347656 C 241.664062 138.289062 241.390625 141.195312 242.84375 142.949219 L 244.789062 145.480469 C 245.882812 146.902344 246.335938 148.71875 246.035156 150.488281 L 244.460938 159.742188 C 243.960938 162.675781 245.699219 165.527344 248.535156 166.429688 L 255.839844 168.34375 C 258.746094 169.105469 260.742188 171.777344 260.648438 174.78125 L 260.367188 183.933594 L 214.742188 203.773438 C 206.566406 207.507812 191.679688 236.609375 178.734375 265.792969 L 153.976562 221.640625 L 153.714844 221.722656 C 153.203125 218.339844 152.789062 215.570312 152.65625 214.5625 C 151.867188 208.59375 148.003906 203.472656 142.5 201.039062 L 126.628906 194.027344 C 123.753906 192.753906 120.382812 193.617188 118.464844 196.113281 L 99.09375 189.984375 C 96.414062 189.136719 93.484375 189.863281 91.507812 191.863281 C 90.347656 193.035156 90.613281 194.988281 92.050781 195.796875 C 95.886719 197.953125 102.589844 201.84375 105.914062 204.53125 C 110.730469 208.421875 132.191406 229.761719 132.191406 229.761719 L 132.207031 229.816406 C 129.304688 232.691406 127.878906 236.898438 128.808594 241.136719 C 133.820312 263.976562 142.03125 302.507812 159.328125 324.675781 C 163.640625 335.347656 180.828125 337.691406 192.453125 327.261719 C 198.980469 321.398438 208.890625 310.316406 218.644531 298.859375 C 219.503906 304.890625 220.425781 310.925781 221.324219 316.582031 C 220.015625 317.789062 219 319.335938 218.441406 321.136719 L 215.28125 331.328125 C 213.90625 335.761719 215.207031 340.585938 218.621094 343.726562 L 224.332031 348.984375 C 225.671875 350.214844 227.667969 350.394531 229.199219 349.417969 L 232.113281 347.5625 C 232.113281 347.5625 245.6875 352.835938 258.675781 346.363281 C 259.917969 348.445312 262.0625 349.9375 264.621094 350.265625 C 282.421875 352.53125 329.324219 357.226562 354.460938 347.769531 C 357.5625 347.007812 360.484375 345.566406 362.925781 343.441406 C 363.289062 343.179688 363.605469 342.875 363.894531 342.542969 C 366.621094 339.808594 368.605469 336.125 369.324219 331.476562 C 374.84375 295.792969 351.398438 211.066406 335.144531 201.859375 Z M 115.574219 84.929688 C 119.074219 80.5 118.695312 80.976562 122.195312 76.546875 L 133.769531 81.503906 C 137.140625 79.113281 138.097656 78.4375 141.464844 76.046875 L 140.628906 63.480469 C 145.96875 61.648438 145.394531 61.847656 150.730469 60.011719 L 157.792969 70.4375 C 161.917969 70.25 163.089844 70.199219 167.214844 70.011719 L 173.304688 58.988281 C 178.789062 60.332031 178.195312 60.1875 183.679688 61.53125 L 183.980469 74.121094 C 187.550781 76.195312 188.566406 76.785156 192.140625 78.859375 L 203.21875 72.878906 C 207.105469 76.972656 206.683594 76.53125 210.570312 80.625 L 204.023438 91.378906 C 205.90625 95.054688 206.441406 96.101562 208.324219 99.777344 L 220.878906 100.738281 C 221.933594 106.285156 221.820312 105.683594 222.875 111.230469 L 211.550781 116.738281 C 211.148438 120.847656 211.035156 122.015625 210.632812 126.128906 L 220.671875 133.722656 C 218.5625 138.960938 218.789062 138.394531 216.679688 143.632812 L 204.179688 142.140625 C 201.617188 145.382812 200.890625 146.300781 198.332031 149.542969 L 202.671875 161.363281 C 198.066406 164.628906 198.5625 164.273438 193.957031 167.539062 L 184.246094 159.523438 C 180.339844 160.867188 179.230469 161.246094 175.324219 162.589844 L 172.585938 174.882812 C 166.949219 175.136719 167.554688 175.109375 161.917969 175.363281 L 158.078125 163.371094 C 154.070312 162.386719 152.929688 162.109375 148.917969 161.125 L 139.972656 169.984375 C 135.089844 167.148438 135.617188 167.457031 130.734375 164.621094 L 133.988281 152.457031 C 131.148438 149.460938 130.339844 148.609375 127.496094 145.613281 L 115.179688 148.230469 C 112.605469 143.203125 112.882812 143.746094 110.308594 138.722656 L 119.621094 130.25 C 118.851562 126.191406 118.632812 125.039062 117.859375 120.980469 L 106.085938 116.523438 C 106.632812 110.902344 106.574219 111.507812 107.125 105.890625 L 119.539062 103.796875 C 121.082031 99.964844 121.523438 98.878906 123.066406 95.046875 Z M 151.398438 117.175781 C 151.398438 124.402344 157.253906 130.261719 164.480469 130.261719 C 171.707031 130.261719 177.5625 124.402344 177.5625 117.175781 C 177.5625 109.949219 171.707031 104.089844 164.480469 104.089844 C 157.253906 104.089844 151.398438 109.949219 151.398438 117.175781 Z M 65.355469 143.203125 C 65.339844 145.976562 65.332031 147.144531 65.316406 149.917969 L 72.082031 155.246094 C 70.644531 159.121094 70.699219 158.964844 69.265625 162.839844 L 60.664062 162.46875 C 58.867188 164.582031 58.109375 165.472656 56.316406 167.585938 L 58.074219 176.015625 C 54.484375 178.058594 54.625 177.976562 51.039062 180.019531 L 44.6875 174.203125 C 41.953125 174.667969 40.800781 174.867188 38.066406 175.332031 L 33.996094 182.917969 C 29.933594 182.175781 30.09375 182.207031 26.03125 181.464844 L 24.902344 172.925781 C 22.511719 171.523438 21.503906 170.933594 19.109375 169.53125 L 11.113281 172.726562 C 8.476562 169.546875 8.582031 169.675781 5.949219 166.492188 L 10.570312 159.226562 C 9.640625 156.617188 9.246094 155.515625 8.3125 152.902344 L 0.132812 150.210938 C 0.160156 146.078125 0.160156 146.242188 0.183594 142.113281 L 8.394531 139.519531 C 9.359375 136.917969 9.765625 135.824219 10.730469 133.222656 L 6.195312 125.902344 C 8.867188 122.753906 8.761719 122.878906 11.4375 119.730469 L 19.394531 123.023438 C 21.804688 121.652344 22.816406 121.074219 25.226562 119.703125 L 26.460938 111.179688 C 30.53125 110.484375 30.371094 110.511719 34.441406 109.820312 L 38.421875 117.457031 C 41.148438 117.957031 42.296875 118.167969 45.023438 118.664062 L 51.445312 112.925781 C 55.007812 115.015625 54.867188 114.933594 58.433594 117.019531 L 56.570312 125.429688 C 58.339844 127.5625 59.085938 128.460938 60.855469 130.597656 L 69.464844 130.332031 C 70.851562 134.222656 70.796875 134.066406 72.183594 137.957031 Z M 49.242188 146.371094 C 49.242188 139.144531 43.386719 133.285156 36.160156 133.285156 C 28.933594 133.285156 23.078125 139.144531 23.078125 146.371094 C 23.078125 153.597656 28.933594 159.457031 36.160156 159.457031 C 43.386719 159.457031 49.242188 153.597656 49.242188 146.371094 Z M 92.234375 123.367188 L 84.457031 116.078125 C 81.066406 116.613281 79.636719 116.839844 76.246094 117.375 L 71.097656 126.707031 C 66.082031 125.730469 66.277344 125.769531 61.261719 124.792969 L 59.988281 114.207031 C 57.046875 112.4375 55.808594 111.695312 52.867188 109.925781 L 42.925781 113.761719 C 39.710938 109.789062 39.835938 109.945312 36.621094 105.972656 L 42.449219 97.046875 C 41.332031 93.800781 40.863281 92.433594 39.746094 89.1875 L 29.660156 85.734375 C 29.753906 80.621094 29.75 80.824219 29.839844 75.714844 L 40.042969 72.621094 C 41.273438 69.417969 41.789062 68.066406 43.023438 64.863281 L 37.515625 55.734375 C 40.871094 51.878906 40.738281 52.03125 44.09375 48.175781 L 53.894531 52.363281 C 56.894531 50.699219 58.160156 50 61.164062 48.335938 L 62.8125 37.804688 C 67.859375 37.007812 67.660156 37.039062 72.707031 36.242188 L 77.523438 45.75 C 80.890625 46.40625 82.3125 46.683594 85.679688 47.339844 L 93.710938 40.332031 C 98.089844 42.964844 97.917969 42.863281 102.296875 45.496094 L 99.875 55.878906 C 102.035156 58.546875 102.941406 59.671875 105.101562 62.339844 L 115.757812 62.132812 C 117.421875 66.96875 117.355469 66.777344 119.015625 71.609375 L 110.488281 78.003906 C 110.425781 81.4375 110.402344 82.882812 110.339844 86.316406 L 118.636719 93.007812 C 116.804688 97.78125 116.875 97.59375 115.042969 102.363281 L 104.398438 101.777344 C 102.148438 104.367188 101.199219 105.460938 98.945312 108.050781 L 100.996094 118.511719 C 96.527344 120.988281 96.703125 120.890625 92.234375 123.367188 Z M 87.421875 81.476562 C 87.421875 74.25 81.566406 68.390625 74.339844 68.390625 C 67.113281 68.390625 61.257812 74.25 61.257812 81.476562 C 61.257812 88.703125 67.113281 94.5625 74.339844 94.5625 C 81.566406 94.5625 87.421875 88.703125 87.421875 81.476562 Z M 87.421875 81.476562 " fill-opacity="1" fill-rule="nonzero"/></g><path fill="#fec045" d="M 369.324219 331.476562 C 368.605469 336.125 366.621094 339.808594 363.894531 342.542969 C 363.605469 342.875 363.289062 343.179688 362.925781 343.441406 C 360.484375 345.566406 357.5625 347.007812 354.460938 347.769531 C 329.324219 357.226562 282.421875 352.53125 264.621094 350.265625 C 262.0625 349.9375 259.917969 348.445312 258.675781 346.363281 C 257.945312 345.136719 257.523438 343.703125 257.523438 342.183594 L 254.664062 317.503906 L 229.832031 313.9375 C 226.648438 313.480469 223.554688 314.527344 221.324219 316.582031 C 220.425781 310.925781 219.503906 304.894531 218.644531 298.859375 C 208.890625 310.316406 198.980469 321.398438 192.453125 327.257812 C 180.828125 337.691406 163.640625 335.347656 159.328125 324.675781 C 142.03125 302.507812 133.820312 263.976562 128.808594 241.136719 C 127.878906 236.894531 129.304688 232.691406 132.207031 229.816406 C 133.578125 228.457031 135.253906 227.367188 137.222656 226.765625 L 153.714844 221.722656 L 153.976562 221.644531 L 178.734375 265.792969 C 191.679688 236.613281 206.566406 207.507812 214.742188 203.773438 L 260.367188 183.9375 L 290.574219 183.9375 L 335.144531 201.859375 C 351.398438 211.066406 374.84375 295.792969 369.324219 331.476562 Z M 369.324219 331.476562 " fill-opacity="1" fill-rule="nonzero"/><path fill="#7b95f9" d="M 211.550781 116.738281 L 222.875 111.234375 C 221.820312 105.6875 221.933594 106.285156 220.878906 100.738281 L 208.324219 99.777344 C 206.441406 96.101562 205.90625 95.058594 204.023438 91.382812 L 210.574219 80.625 C 206.6875 76.53125 207.105469 76.972656 203.21875 72.878906 L 192.140625 78.859375 C 188.570312 76.785156 187.554688 76.195312 183.980469 74.121094 L 183.679688 61.53125 C 178.195312 60.1875 178.789062 60.332031 173.304688 58.988281 L 167.21875 70.011719 C 163.089844 70.199219 161.917969 70.253906 157.792969 70.4375 L 150.734375 60.011719 C 145.394531 61.847656 145.972656 61.648438 140.632812 63.484375 L 141.46875 76.046875 C 138.097656 78.4375 137.140625 79.113281 133.769531 81.503906 L 122.195312 76.546875 C 118.695312 80.980469 119.074219 80.5 115.574219 84.929688 L 123.070312 95.046875 C 121.523438 98.878906 121.085938 99.96875 119.542969 103.800781 L 107.128906 105.890625 C 106.578125 111.511719 106.636719 110.902344 106.085938 116.523438 L 117.863281 120.984375 C 118.632812 125.039062 118.851562 126.191406 119.625 130.25 L 110.3125 138.722656 C 112.886719 143.75 112.609375 143.207031 115.183594 148.230469 L 127.5 145.613281 C 130.34375 148.609375 131.148438 149.460938 133.992188 152.457031 L 130.738281 164.625 C 135.617188 167.457031 135.09375 167.152344 139.972656 169.984375 L 148.921875 161.125 C 152.933594 162.109375 154.070312 162.390625 158.082031 163.371094 L 161.917969 175.367188 C 167.558594 175.109375 166.949219 175.136719 172.589844 174.882812 L 175.328125 162.589844 C 179.234375 161.25 180.34375 160.867188 184.25 159.527344 L 193.960938 167.539062 C 198.566406 164.277344 198.066406 164.628906 202.675781 161.363281 L 198.332031 149.542969 C 200.894531 146.304688 201.621094 145.382812 204.179688 142.140625 L 216.683594 143.632812 C 218.792969 138.394531 218.566406 138.960938 220.675781 133.722656 L 210.632812 126.128906 C 211.035156 122.015625 211.148438 120.847656 211.550781 116.738281 Z M 164.480469 130.261719 C 157.253906 130.261719 151.398438 124.402344 151.398438 117.175781 C 151.398438 109.949219 157.253906 104.089844 164.480469 104.089844 C 171.707031 104.089844 177.5625 109.949219 177.5625 117.175781 C 177.5625 124.402344 171.707031 130.261719 164.480469 130.261719 Z M 164.480469 130.261719 " fill-opacity="1" fill-rule="nonzero"/><g clip-path="url(#a97563d801)"><path fill="#4724e3" d="M 307.726562 138.144531 C 306.1875 152.039062 291.359375 170.429688 291.359375 170.429688 L 287.394531 154.546875 C 289.257812 153.738281 291.144531 152.429688 292.804688 150.316406 C 293.078125 149.96875 293.316406 149.589844 293.539062 149.195312 C 295.972656 144.871094 295.050781 138.25 288 137.054688 C 283.484375 136.289062 279.957031 137.988281 277.804688 139.523438 C 277.804688 139.523438 271.882812 134.605469 270.371094 123.125 C 270.371094 123.125 264.335938 123.285156 258.828125 122.085938 C 257.242188 121.738281 255.703125 121.28125 254.363281 120.675781 C 253.722656 123.003906 253.324219 125.140625 253 127.007812 C 251.632812 125.691406 250.355469 123.980469 249.832031 121.949219 C 249.457031 120.476562 249.464844 118.847656 250.171875 117.066406 C 254.425781 106.339844 273.351562 106.15625 288 109.292969 C 302.644531 112.433594 309.226562 124.566406 307.726562 138.144531 Z M 110.488281 78.007812 C 110.425781 81.4375 110.402344 82.882812 110.339844 86.316406 L 118.636719 93.011719 C 116.804688 97.78125 116.875 97.59375 115.042969 102.367188 L 104.398438 101.78125 C 102.148438 104.371094 101.199219 105.460938 98.945312 108.050781 L 100.996094 118.511719 C 96.527344 120.988281 96.703125 120.890625 92.234375 123.367188 L 84.457031 116.078125 C 81.066406 116.613281 79.636719 116.839844 76.25 117.375 L 71.097656 126.707031 C 66.082031 125.730469 66.277344 125.769531 61.261719 124.792969 L 59.992188 114.207031 C 57.046875 112.4375 55.8125 111.695312 52.867188 109.925781 L 42.925781 113.761719 C 39.710938 109.789062 39.835938 109.945312 36.621094 105.972656 L 42.449219 97.046875 C 41.332031 93.796875 40.863281 92.433594 39.746094 89.1875 L 29.664062 85.734375 C 29.753906 80.621094 29.75 80.824219 29.839844 75.714844 L 40.042969 72.621094 C 41.273438 69.417969 41.792969 68.066406 43.023438 64.863281 L 37.515625 55.734375 C 40.871094 51.878906 40.738281 52.03125 44.09375 48.175781 L 53.894531 52.363281 C 56.894531 50.699219 58.160156 50 61.164062 48.335938 L 62.8125 37.804688 C 67.859375 37.007812 67.660156 37.039062 72.707031 36.242188 L 77.523438 45.75 C 80.894531 46.40625 82.3125 46.683594 85.679688 47.339844 L 93.710938 40.332031 C 98.09375 42.964844 97.917969 42.863281 102.296875 45.496094 L 99.875 55.878906 C 102.035156 58.546875 102.945312 59.667969 105.101562 62.339844 L 115.757812 62.132812 C 117.421875 66.964844 117.355469 66.777344 119.019531 71.609375 Z M 87.421875 81.476562 C 87.421875 74.25 81.566406 68.390625 74.339844 68.390625 C 67.113281 68.390625 61.257812 74.25 61.257812 81.476562 C 61.257812 88.703125 67.113281 94.5625 74.339844 94.5625 C 81.566406 94.5625 87.421875 88.703125 87.421875 81.476562 Z M 87.421875 81.476562 " fill-opacity="1" fill-rule="nonzero"/></g></svg>