<svg xmlns="http://www.w3.org/2000/svg" xmlns:xlink="http://www.w3.org/1999/xlink" width="500" zoomAndPan="magnify" viewBox="0 0 375 374.999991" height="500" preserveAspectRatio="xMidYMid meet" version="1.0"><defs><clipPath id="b1085995db"><path d="M 11.886719 175 L 361 175 L 361 191 L 11.886719 191 Z M 11.886719 175 " clip-rule="nonzero"/></clipPath><clipPath id="30e21cbbfd"><path d="M 11.886719 175 L 90 175 L 90 191 L 11.886719 191 Z M 11.886719 175 " clip-rule="nonzero"/></clipPath></defs><path fill="#254995" d="M 68.8125 175.320312 L 36.257812 175.320312 C 35.613281 175.320312 35.09375 174.800781 35.09375 174.15625 L 35.09375 166.355469 C 35.09375 165.710938 35.613281 165.1875 36.257812 165.1875 L 68.8125 165.1875 C 69.457031 165.1875 69.976562 165.710938 69.976562 166.355469 L 69.976562 174.15625 C 69.976562 174.800781 69.457031 175.320312 68.8125 175.320312 " fill-opacity="1" fill-rule="nonzero"/><path fill="#3d5db4" d="M 62.664062 175.320312 L 30.109375 175.320312 C 29.464844 175.320312 28.945312 174.800781 28.945312 174.15625 L 28.945312 166.355469 C 28.945312 165.710938 29.464844 165.1875 30.109375 165.1875 L 62.664062 165.1875 C 63.308594 165.1875 63.828125 165.710938 63.828125 166.355469 L 63.828125 174.15625 C 63.828125 174.800781 63.308594 175.320312 62.664062 175.320312 " fill-opacity="1" fill-rule="nonzero"/><path fill="#264993" d="M 57.683594 170.253906 C 57.683594 171.589844 56.785156 172.667969 55.675781 172.667969 C 54.570312 172.667969 53.671875 171.589844 53.671875 170.253906 C 53.671875 168.921875 54.570312 167.839844 55.675781 167.839844 C 56.785156 167.839844 57.683594 168.921875 57.683594 170.253906 " fill-opacity="1" fill-rule="nonzero"/><path fill="#254995" d="M 64.160156 165.667969 L 33.125 165.667969 C 32.925781 165.667969 32.765625 165.511719 32.765625 165.3125 C 32.765625 165.113281 32.925781 164.957031 33.125 164.957031 L 64.160156 164.957031 C 64.359375 164.957031 64.519531 165.113281 64.519531 165.3125 C 64.519531 165.511719 64.359375 165.667969 64.160156 165.667969 " fill-opacity="1" fill-rule="nonzero"/><path fill="#e62753" d="M 71.863281 165.097656 L 39.308594 165.097656 C 38.664062 165.097656 38.140625 164.574219 38.140625 163.933594 L 38.140625 156.128906 C 38.140625 155.484375 38.664062 154.964844 39.308594 154.964844 L 71.863281 154.964844 C 72.507812 154.964844 73.027344 155.484375 73.027344 156.128906 L 73.027344 163.933594 C 73.027344 164.574219 72.507812 165.097656 71.863281 165.097656 " fill-opacity="1" fill-rule="nonzero"/><path fill="#f03c68" d="M 65.714844 165.097656 L 33.160156 165.097656 C 32.515625 165.097656 31.996094 164.574219 31.996094 163.933594 L 31.996094 156.128906 C 31.996094 155.484375 32.515625 154.964844 33.160156 154.964844 L 65.714844 154.964844 C 66.359375 154.964844 66.882812 155.484375 66.882812 156.128906 L 66.882812 163.933594 C 66.882812 164.574219 66.359375 165.097656 65.714844 165.097656 " fill-opacity="1" fill-rule="nonzero"/><path fill="#8c1436" d="M 60.734375 160.03125 C 60.734375 161.363281 59.835938 162.445312 58.726562 162.445312 C 57.621094 162.445312 56.722656 161.363281 56.722656 160.03125 C 56.722656 158.699219 57.621094 157.617188 58.726562 157.617188 C 59.835938 157.617188 60.734375 158.699219 60.734375 160.03125 " fill-opacity="1" fill-rule="nonzero"/><path fill="#e62753" d="M 71.660156 155.632812 L 33.125 155.632812 C 32.652344 155.632812 32.273438 155.253906 32.273438 154.78125 C 32.273438 154.308594 32.652344 153.929688 33.125 153.929688 L 71.660156 153.929688 C 72.132812 153.929688 72.515625 154.308594 72.515625 154.78125 C 72.515625 155.253906 72.132812 155.632812 71.660156 155.632812 " fill-opacity="1" fill-rule="nonzero"/><path fill="#254995" d="M 71.863281 154.78125 L 39.308594 154.78125 C 38.664062 154.78125 38.140625 154.261719 38.140625 153.617188 L 38.140625 145.816406 C 38.140625 145.171875 38.664062 144.648438 39.308594 144.648438 L 71.863281 144.648438 C 72.507812 144.648438 73.027344 145.171875 73.027344 145.816406 L 73.027344 153.617188 C 73.027344 154.261719 72.507812 154.78125 71.863281 154.78125 " fill-opacity="1" fill-rule="nonzero"/><path fill="#3d5db4" d="M 65.714844 154.78125 L 33.160156 154.78125 C 32.515625 154.78125 31.996094 154.261719 31.996094 153.617188 L 31.996094 145.816406 C 31.996094 145.171875 32.515625 144.648438 33.160156 144.648438 L 65.714844 144.648438 C 66.359375 144.648438 66.882812 145.171875 66.882812 145.816406 L 66.882812 153.617188 C 66.882812 154.261719 66.359375 154.78125 65.714844 154.78125 " fill-opacity="1" fill-rule="nonzero"/><path fill="#264993" d="M 60.734375 149.714844 C 60.734375 151.046875 59.835938 152.128906 58.726562 152.128906 C 57.621094 152.128906 56.722656 151.046875 56.722656 149.714844 C 56.722656 148.382812 57.621094 147.300781 58.726562 147.300781 C 59.835938 147.300781 60.734375 148.382812 60.734375 149.714844 " fill-opacity="1" fill-rule="nonzero"/><path fill="#254995" d="M 67.210938 145.199219 L 33.125 145.199219 C 32.890625 145.199219 32.699219 145.007812 32.699219 144.773438 C 32.699219 144.539062 32.890625 144.347656 33.125 144.347656 L 67.210938 144.347656 C 67.445312 144.347656 67.636719 144.539062 67.636719 144.773438 C 67.636719 145.007812 67.445312 145.199219 67.210938 145.199219 " fill-opacity="1" fill-rule="nonzero"/><path fill="#e62753" d="M 68.296875 144.648438 L 35.742188 144.648438 C 35.097656 144.648438 34.578125 144.128906 34.578125 143.484375 L 34.578125 135.683594 C 34.578125 135.039062 35.097656 134.515625 35.742188 134.515625 L 68.296875 134.515625 C 68.941406 134.515625 69.460938 135.039062 69.460938 135.683594 L 69.460938 143.484375 C 69.460938 144.128906 68.941406 144.648438 68.296875 144.648438 " fill-opacity="1" fill-rule="nonzero"/><path fill="#f03c68" d="M 62.148438 144.648438 L 29.59375 144.648438 C 28.949219 144.648438 28.429688 144.128906 28.429688 143.484375 L 28.429688 135.683594 C 28.429688 135.039062 28.949219 134.515625 29.59375 134.515625 L 62.148438 134.515625 C 62.792969 134.515625 63.316406 135.039062 63.316406 135.683594 L 63.316406 143.484375 C 63.316406 144.128906 62.792969 144.648438 62.148438 144.648438 " fill-opacity="1" fill-rule="nonzero"/><path fill="#8c1436" d="M 57.167969 139.582031 C 57.167969 140.917969 56.269531 141.996094 55.160156 141.996094 C 54.050781 141.996094 53.15625 140.917969 53.15625 139.582031 C 53.15625 138.25 54.050781 137.167969 55.160156 137.167969 C 56.269531 137.167969 57.167969 138.25 57.167969 139.582031 " fill-opacity="1" fill-rule="nonzero"/><path fill="#254995" d="M 65.761719 134.515625 L 33.207031 134.515625 C 32.5625 134.515625 32.042969 133.996094 32.042969 133.351562 L 32.042969 125.550781 C 32.042969 124.90625 32.5625 124.382812 33.207031 124.382812 L 65.761719 124.382812 C 66.40625 124.382812 66.925781 124.90625 66.925781 125.550781 L 66.925781 133.351562 C 66.925781 133.996094 66.40625 134.515625 65.761719 134.515625 " fill-opacity="1" fill-rule="nonzero"/><path fill="#3d5db4" d="M 59.613281 134.515625 L 27.058594 134.515625 C 26.414062 134.515625 25.894531 133.996094 25.894531 133.351562 L 25.894531 125.550781 C 25.894531 124.90625 26.414062 124.382812 27.058594 124.382812 L 59.613281 124.382812 C 60.257812 124.382812 60.78125 124.90625 60.78125 125.550781 L 60.78125 133.351562 C 60.78125 133.996094 60.257812 134.515625 59.613281 134.515625 " fill-opacity="1" fill-rule="nonzero"/><path fill="#264993" d="M 54.632812 129.449219 C 54.632812 130.785156 53.734375 131.863281 52.625 131.863281 C 51.519531 131.863281 50.621094 130.785156 50.621094 129.449219 C 50.621094 128.117188 51.519531 127.035156 52.625 127.035156 C 53.734375 127.035156 54.632812 128.117188 54.632812 129.449219 " fill-opacity="1" fill-rule="nonzero"/><path fill="#254995" d="M 61.109375 124.863281 L 30.074219 124.863281 C 29.875 124.863281 29.71875 124.707031 29.71875 124.507812 C 29.71875 124.308594 29.875 124.152344 30.074219 124.152344 L 61.109375 124.152344 C 61.308594 124.152344 61.46875 124.308594 61.46875 124.507812 C 61.46875 124.707031 61.308594 124.863281 61.109375 124.863281 " fill-opacity="1" fill-rule="nonzero"/><path fill="#e62753" d="M 68.8125 124.292969 L 36.257812 124.292969 C 35.613281 124.292969 35.09375 123.769531 35.09375 123.128906 L 35.09375 115.328125 C 35.09375 114.683594 35.613281 114.160156 36.257812 114.160156 L 68.8125 114.160156 C 69.457031 114.160156 69.976562 114.683594 69.976562 115.328125 L 69.976562 123.128906 C 69.976562 123.769531 69.457031 124.292969 68.8125 124.292969 " fill-opacity="1" fill-rule="nonzero"/><path fill="#f03c68" d="M 62.664062 124.292969 L 30.109375 124.292969 C 29.464844 124.292969 28.945312 123.769531 28.945312 123.128906 L 28.945312 115.328125 C 28.945312 114.683594 29.464844 114.160156 30.109375 114.160156 L 62.664062 114.160156 C 63.308594 114.160156 63.828125 114.683594 63.828125 115.328125 L 63.828125 123.128906 C 63.828125 123.769531 63.308594 124.292969 62.664062 124.292969 " fill-opacity="1" fill-rule="nonzero"/><path fill="#8c1436" d="M 57.683594 119.226562 C 57.683594 120.558594 56.785156 121.640625 55.675781 121.640625 C 54.570312 121.640625 53.671875 120.558594 53.671875 119.226562 C 53.671875 117.894531 54.570312 116.8125 55.675781 116.8125 C 56.785156 116.8125 57.683594 117.894531 57.683594 119.226562 " fill-opacity="1" fill-rule="nonzero"/><path fill="#e62753" d="M 68.609375 114.832031 L 30.074219 114.832031 C 29.601562 114.832031 29.222656 114.449219 29.222656 113.976562 C 29.222656 113.503906 29.601562 113.125 30.074219 113.125 L 68.609375 113.125 C 69.082031 113.125 69.460938 113.503906 69.460938 113.976562 C 69.460938 114.449219 69.082031 114.832031 68.609375 114.832031 " fill-opacity="1" fill-rule="nonzero"/><path fill="#254995" d="M 68.8125 113.976562 L 36.257812 113.976562 C 35.613281 113.976562 35.09375 113.457031 35.09375 112.808594 L 35.09375 105.011719 C 35.09375 104.367188 35.613281 103.84375 36.257812 103.84375 L 68.8125 103.84375 C 69.457031 103.84375 69.976562 104.367188 69.976562 105.011719 L 69.976562 112.808594 C 69.976562 113.457031 69.457031 113.976562 68.8125 113.976562 " fill-opacity="1" fill-rule="nonzero"/><path fill="#3d5db4" d="M 62.664062 113.976562 L 30.109375 113.976562 C 29.464844 113.976562 28.945312 113.457031 28.945312 112.808594 L 28.945312 105.011719 C 28.945312 104.367188 29.464844 103.84375 30.109375 103.84375 L 62.664062 103.84375 C 63.308594 103.84375 63.828125 104.367188 63.828125 105.011719 L 63.828125 112.808594 C 63.828125 113.457031 63.308594 113.976562 62.664062 113.976562 " fill-opacity="1" fill-rule="nonzero"/><path fill="#264993" d="M 57.683594 108.910156 C 57.683594 110.242188 56.785156 111.324219 55.675781 111.324219 C 54.570312 111.324219 53.671875 110.242188 53.671875 108.910156 C 53.671875 107.578125 54.570312 106.496094 55.675781 106.496094 C 56.785156 106.496094 57.683594 107.578125 57.683594 108.910156 " fill-opacity="1" fill-rule="nonzero"/><path fill="#254995" d="M 64.160156 104.394531 L 30.074219 104.394531 C 29.839844 104.394531 29.648438 104.203125 29.648438 103.96875 C 29.648438 103.734375 29.839844 103.542969 30.074219 103.542969 L 64.160156 103.542969 C 64.394531 103.542969 64.585938 103.734375 64.585938 103.96875 C 64.585938 104.203125 64.394531 104.394531 64.160156 104.394531 " fill-opacity="1" fill-rule="nonzero"/><path fill="#e62753" d="M 65.246094 103.84375 L 32.691406 103.84375 C 32.046875 103.84375 31.523438 103.324219 31.523438 102.675781 L 31.523438 94.878906 C 31.523438 94.234375 32.046875 93.710938 32.691406 93.710938 L 65.246094 93.710938 C 65.890625 93.710938 66.410156 94.234375 66.410156 94.878906 L 66.410156 102.675781 C 66.410156 103.324219 65.890625 103.84375 65.246094 103.84375 " fill-opacity="1" fill-rule="nonzero"/><path fill="#f03c68" d="M 59.097656 103.84375 L 26.542969 103.84375 C 25.898438 103.84375 25.378906 103.324219 25.378906 102.675781 L 25.378906 94.878906 C 25.378906 94.234375 25.898438 93.710938 26.542969 93.710938 L 59.097656 93.710938 C 59.742188 93.710938 60.261719 94.234375 60.261719 94.878906 L 60.261719 102.675781 C 60.261719 103.324219 59.742188 103.84375 59.097656 103.84375 " fill-opacity="1" fill-rule="nonzero"/><path fill="#8c1436" d="M 54.117188 98.777344 C 54.117188 100.113281 53.21875 101.191406 52.109375 101.191406 C 51.003906 101.191406 50.105469 100.113281 50.105469 98.777344 C 50.105469 97.445312 51.003906 96.367188 52.109375 96.367188 C 53.21875 96.367188 54.117188 97.445312 54.117188 98.777344 " fill-opacity="1" fill-rule="nonzero"/><path fill="#736dbe" d="M 261.574219 64.378906 C 264.917969 77.53125 256.964844 90.902344 243.816406 94.246094 C 230.664062 97.585938 217.292969 89.636719 213.949219 76.484375 C 210.605469 63.332031 218.558594 49.960938 231.710938 46.617188 C 244.863281 43.273438 258.230469 51.226562 261.574219 64.378906 " fill-opacity="1" fill-rule="nonzero"/><path fill="#736dbe" d="M 192.542969 71.035156 C 192.542969 74.664062 195.484375 77.601562 199.109375 77.601562 C 202.738281 77.601562 205.679688 74.664062 205.679688 71.035156 C 205.679688 67.40625 202.738281 64.464844 199.109375 64.464844 C 195.484375 64.464844 192.542969 67.40625 192.542969 71.035156 " fill-opacity="1" fill-rule="nonzero"/><path fill="#ffffff" d="M 237.761719 75.363281 C 240.488281 75.363281 242.695312 73.152344 242.695312 70.429688 C 242.695312 67.710938 240.488281 65.503906 237.761719 65.503906 C 235.039062 65.503906 232.832031 67.710938 232.832031 70.429688 C 232.832031 73.152344 235.039062 75.363281 237.761719 75.363281 Z M 225.535156 67.875 L 227.1875 67.875 C 227.640625 67.875 228.042969 67.585938 228.1875 67.15625 C 228.324219 66.738281 228.484375 66.332031 228.671875 65.933594 C 228.863281 65.535156 228.78125 65.058594 228.464844 64.746094 L 227.316406 63.589844 C 226.898438 63.183594 226.898438 62.511719 227.316406 62.101562 L 229.429688 59.980469 C 229.84375 59.566406 230.511719 59.566406 230.925781 59.980469 L 232.039062 61.089844 C 232.355469 61.414062 232.839844 61.496094 233.242188 61.292969 C 233.648438 61.085938 234.066406 60.910156 234.503906 60.765625 C 234.925781 60.617188 235.210938 60.21875 235.210938 59.769531 L 235.210938 58.207031 C 235.210938 57.621094 235.683594 57.148438 236.265625 57.148438 L 239.257812 57.148438 C 239.84375 57.148438 240.316406 57.621094 240.316406 58.207031 L 240.316406 59.777344 C 240.316406 60.226562 240.601562 60.625 241.019531 60.765625 C 241.449219 60.917969 241.871094 61.089844 242.273438 61.296875 C 242.679688 61.496094 243.167969 61.414062 243.484375 61.09375 L 244.597656 59.980469 C 245.015625 59.566406 245.679688 59.566406 246.09375 59.980469 L 248.210938 62.101562 C 248.625 62.511719 248.625 63.183594 248.210938 63.589844 L 247.050781 64.75 C 246.738281 65.066406 246.652344 65.546875 246.839844 65.945312 C 247.03125 66.335938 247.191406 66.738281 247.328125 67.152344 C 247.46875 67.585938 247.875 67.875 248.328125 67.875 L 249.988281 67.875 C 250.570312 67.875 251.042969 68.347656 251.042969 68.933594 L 251.042969 71.929688 C 251.042969 72.507812 250.570312 72.988281 249.988281 72.988281 L 248.234375 72.988281 C 247.792969 72.988281 247.398438 73.257812 247.246094 73.679688 C 247.109375 74.0625 246.949219 74.4375 246.761719 74.804688 C 246.5625 75.210938 246.644531 75.695312 246.964844 76.019531 L 248.210938 77.269531 C 248.625 77.679688 248.625 78.347656 248.210938 78.761719 L 246.09375 80.882812 C 245.679688 81.292969 245.015625 81.292969 244.597656 80.882812 L 243.308594 79.585938 C 242.992188 79.273438 242.515625 79.191406 242.117188 79.382812 C 241.761719 79.550781 241.398438 79.695312 241.027344 79.824219 C 240.605469 79.96875 240.316406 80.371094 240.316406 80.816406 L 240.316406 82.65625 C 240.316406 83.242188 239.84375 83.710938 239.257812 83.710938 L 236.265625 83.710938 C 235.683594 83.710938 235.210938 83.242188 235.210938 82.65625 L 235.210938 80.824219 C 235.210938 80.371094 234.921875 79.96875 234.496094 79.832031 C 234.121094 79.703125 233.761719 79.550781 233.40625 79.386719 C 233.007812 79.195312 232.527344 79.277344 232.210938 79.589844 L 230.925781 80.882812 C 230.511719 81.292969 229.84375 81.292969 229.429688 80.882812 L 227.316406 78.761719 C 226.898438 78.347656 226.898438 77.679688 227.316406 77.269531 L 228.558594 76.023438 C 228.878906 75.707031 228.957031 75.214844 228.75 74.808594 C 228.566406 74.445312 228.40625 74.070312 228.269531 73.679688 C 228.117188 73.257812 227.722656 72.988281 227.28125 72.988281 L 225.535156 72.988281 C 224.957031 72.988281 224.484375 72.507812 224.484375 71.929688 L 224.484375 68.933594 C 224.484375 68.347656 224.957031 67.875 225.535156 67.875 " fill-opacity="1" fill-rule="nonzero"/><path fill="#dd6070" d="M 144.378906 198.367188 C 143.578125 199.136719 142.753906 199.769531 141.84375 200.292969 C 135.511719 203.984375 129.863281 205.25 125.074219 205.25 C 113.917969 205.195312 107.308594 198.171875 107.308594 198.171875 C 83.652344 165.234375 93.679688 117.617188 118.683594 115.605469 C 149.941406 113.070312 161.8125 181.730469 144.378906 198.367188 " fill-opacity="1" fill-rule="nonzero"/><path fill="#252839" d="M 136.585938 304.171875 L 142.210938 304.171875 L 142.210938 243.191406 L 136.585938 243.191406 L 136.585938 304.171875 " fill-opacity="1" fill-rule="nonzero"/><path fill="#252839" d="M 134.425781 290.359375 L 144.90625 290.359375 C 145.9375 290.359375 146.769531 289.523438 146.769531 288.492188 L 146.769531 255.480469 C 146.769531 254.449219 145.9375 253.613281 144.90625 253.613281 L 134.425781 253.613281 C 133.394531 253.613281 132.558594 254.449219 132.558594 255.480469 L 132.558594 288.492188 C 132.558594 289.523438 133.394531 290.359375 134.425781 290.359375 " fill-opacity="1" fill-rule="nonzero"/><path fill="#252839" d="M 170.089844 309.035156 C 169.613281 309.035156 169.140625 308.863281 168.769531 308.511719 C 168.648438 308.398438 161.414062 302.011719 139.398438 302.011719 C 117.234375 302.011719 109.519531 308.488281 109.441406 308.554688 C 108.648438 309.246094 107.429688 309.167969 106.734375 308.382812 C 106.035156 307.585938 106.101562 306.390625 106.882812 305.683594 C 107.226562 305.375 115.523438 298.164062 139.398438 298.164062 C 163.316406 298.164062 171.105469 305.421875 171.425781 305.726562 C 172.191406 306.464844 172.210938 307.683594 171.476562 308.449219 C 171.097656 308.839844 170.59375 309.035156 170.089844 309.035156 " fill-opacity="1" fill-rule="nonzero"/><path fill="#252839" d="M 104.347656 308.660156 C 104.347656 310.402344 105.761719 311.816406 107.503906 311.816406 C 109.242188 311.816406 110.65625 310.402344 110.65625 308.660156 C 110.65625 306.917969 109.242188 305.507812 107.503906 305.507812 C 105.761719 305.507812 104.347656 306.917969 104.347656 308.660156 " fill-opacity="1" fill-rule="nonzero"/><path fill="#252839" d="M 136.246094 305.609375 C 136.246094 307.351562 137.65625 308.765625 139.398438 308.765625 C 141.140625 308.765625 142.550781 307.351562 142.550781 305.609375 C 142.550781 303.867188 141.140625 302.457031 139.398438 302.457031 C 137.65625 302.457031 136.246094 303.867188 136.246094 305.609375 " fill-opacity="1" fill-rule="nonzero"/><path fill="#252839" d="M 107.121094 243.191406 L 170.6875 243.191406 C 174.09375 243.191406 176.855469 240.433594 176.855469 237.027344 L 176.855469 230.0625 L 102.089844 230.0625 L 102.089844 238.160156 C 102.089844 240.941406 104.339844 243.191406 107.121094 243.191406 " fill-opacity="1" fill-rule="nonzero"/><path fill="#bc3e4c" d="M 102.089844 230.0625 L 176.855469 230.0625 L 176.855469 226.125 C 176.855469 221.046875 172.738281 216.929688 167.65625 216.929688 L 111.285156 216.929688 C 106.207031 216.929688 102.089844 221.046875 102.089844 226.125 L 102.089844 230.0625 " fill-opacity="1" fill-rule="nonzero"/><path fill="#252839" d="M 166.554688 307.71875 C 166.554688 309.402344 167.917969 310.761719 169.597656 310.761719 C 171.277344 310.761719 172.640625 309.402344 172.640625 307.71875 C 172.640625 306.039062 171.277344 304.675781 169.597656 304.675781 C 167.917969 304.675781 166.554688 306.039062 166.554688 307.71875 " fill-opacity="1" fill-rule="nonzero"/><path fill="#bc3e4c" d="M 144.378906 198.367188 C 143.578125 199.136719 142.753906 199.769531 141.84375 200.292969 C 135.511719 203.984375 129.863281 205.25 125.074219 205.25 C 115.625 166.914062 116.085938 133.949219 130.214844 132.542969 C 141.699219 131.441406 144.296875 177.078125 144.378906 198.367188 " fill-opacity="1" fill-rule="nonzero"/><path fill="#8ed2f3" d="M 175.78125 190.003906 C 175.78125 190.003906 211.378906 214.628906 214.296875 220.136719 C 217.210938 225.644531 203.726562 232.816406 199.230469 232.652344 C 194.730469 232.492188 160.050781 213.785156 158.84375 210.480469 C 157.636719 207.175781 175.78125 190.003906 175.78125 190.003906 " fill-opacity="1" fill-rule="nonzero"/><path fill="#31597d" d="M 128.183594 184.101562 C 128.183594 184.101562 147.734375 209.800781 150.171875 210.601562 C 152.609375 211.398438 158.710938 211.324219 161.539062 210.121094 C 164.363281 208.917969 179.871094 182.371094 179.871094 182.371094 C 179.871094 182.371094 177.921875 178.429688 169.554688 181.984375 C 161.183594 185.539062 157.300781 189.777344 157.300781 189.777344 C 157.300781 189.777344 143.914062 181.816406 136.976562 181.59375 C 130.042969 181.375 128.183594 184.101562 128.183594 184.101562 " fill-opacity="1" fill-rule="nonzero"/><path fill="#b8e2f8" d="M 133.007812 190.003906 C 155.363281 203.128906 192.382812 224.511719 194.199219 229.859375 C 196.019531 235.203125 178.40625 239.457031 175.492188 239.457031 C 172.574219 239.457031 151.917969 236.125 136.535156 228.65625 C 118.3125 219.8125 133.007812 190.003906 133.007812 190.003906 " fill-opacity="1" fill-rule="nonzero"/><path fill="#8ed2f3" d="M 192.835938 110.863281 C 200.929688 114.109375 222.703125 147.761719 221.742188 150.691406 C 220.777344 153.625 218.722656 158.925781 215.371094 160.042969 C 212.019531 161.160156 195.347656 142.144531 190.121094 132.191406 C 184.894531 122.238281 192.835938 110.863281 192.835938 110.863281 " fill-opacity="1" fill-rule="nonzero"/><path fill="#31597d" d="M 184.957031 122.019531 C 184.539062 128.644531 186.234375 134.148438 188.75 134.304688 C 191.261719 134.464844 193.640625 129.222656 194.058594 122.59375 C 194.480469 115.96875 192.78125 110.46875 190.269531 110.308594 C 187.753906 110.148438 185.378906 115.390625 184.957031 122.019531 " fill-opacity="1" fill-rule="nonzero"/><path fill="#1d3e59" d="M 131.523438 182.519531 C 130.3125 183.855469 129.707031 186.074219 129.707031 186.074219 C 129.707031 186.074219 148.457031 194.984375 156.585938 194.574219 C 164.410156 194.179688 174.515625 184.117188 174.515625 184.117188 C 174.515625 184.117188 174.21875 181.386719 172.449219 180.632812 C 170.675781 179.878906 131.523438 182.519531 131.523438 182.519531 " fill-opacity="1" fill-rule="nonzero"/><path fill="#b8e2f8" d="M 127.210938 125.820312 C 123.992188 150.625 130.761719 180.277344 131.523438 182.519531 C 132.0625 184.113281 153.050781 190.566406 157.089844 190.273438 C 160.410156 190.03125 171.1875 183.046875 171.3125 181.785156 C 171.597656 178.847656 169.09375 163.246094 174.515625 145.871094 C 174.945312 144.503906 127.210938 125.820312 127.210938 125.820312 " fill-opacity="1" fill-rule="nonzero"/><path fill="#b8e2f8" d="M 130.214844 105.320312 C 130.214844 105.320312 128.371094 142.945312 134.113281 149.269531 C 139.851562 155.589844 176.921875 157.078125 181.324219 153.21875 C 187.785156 147.554688 193.523438 110.238281 190.5 108.921875 C 187.476562 107.605469 130.214844 105.320312 130.214844 105.320312 " fill-opacity="1" fill-rule="nonzero"/><path fill="#b8e2f8" d="M 130.214844 105.320312 C 130.214844 105.320312 144.464844 101.351562 161.652344 102.179688 C 178.835938 103.003906 190.5 108.921875 190.5 108.921875 C 190.5 108.921875 187.730469 134.683594 184.910156 136.511719 C 184.910156 136.511719 170.035156 131.820312 164.472656 131.351562 C 158.933594 130.886719 139.375 133.171875 139.375 133.171875 C 133.789062 130.347656 130.214844 105.320312 130.214844 105.320312 " fill-opacity="1" fill-rule="nonzero"/><path fill="#31597d" d="M 160.886719 87.027344 C 159.789062 96.195312 154.800781 102.125 154.800781 102.125 C 154.800781 102.125 161.722656 111.105469 166.28125 111.621094 C 168.691406 111.898438 173.609375 104.574219 173.609375 104.574219 C 173.609375 104.574219 174.160156 100.851562 178.132812 95.074219 C 182.109375 89.292969 160.886719 87.027344 160.886719 87.027344 " fill-opacity="1" fill-rule="nonzero"/><path fill="#6893d4" d="M 165.945312 116.738281 C 162.617188 116.738281 158.957031 116.417969 157.25 115.808594 C 154.230469 114.734375 143.363281 103.585938 142.90625 103.109375 L 143.261719 102.761719 C 143.375 102.878906 154.503906 114.300781 157.414062 115.339844 C 160.421875 116.402344 170.160156 116.5625 172.082031 115.578125 C 173.632812 114.785156 177.351562 108.191406 179.101562 104.820312 L 179.542969 105.050781 C 179.335938 105.453125 174.390625 114.957031 172.3125 116.019531 C 171.375 116.503906 168.78125 116.738281 165.945312 116.738281 " fill-opacity="1" fill-rule="nonzero"/><path fill="#b8e2f8" d="M 174.332031 105.601562 C 159.660156 103.289062 156.863281 87.445312 156.878906 77.785156 C 156.902344 65.136719 181.832031 60.773438 186.175781 73.996094 C 191.09375 88.964844 180.992188 106.65625 174.332031 105.601562 " fill-opacity="1" fill-rule="nonzero"/><path fill="#31597d" d="M 125.050781 118.929688 C 125.050781 126.449219 127.363281 132.542969 130.214844 132.542969 C 133.066406 132.542969 135.375 126.449219 135.375 118.929688 C 135.375 111.414062 133.066406 105.320312 130.214844 105.320312 C 127.363281 105.320312 125.050781 111.414062 125.050781 118.929688 " fill-opacity="1" fill-rule="nonzero"/><path fill="#8ed2f3" d="M 157.917969 167.011719 C 167.515625 171.265625 195.460938 171.019531 195.460938 171.019531 L 197.160156 164.996094 C 197.160156 164.996094 168.265625 150.71875 160.359375 153.519531 C 152.449219 156.320312 157.917969 167.011719 157.917969 167.011719 " fill-opacity="1" fill-rule="nonzero"/><path fill="#31597d" d="M 195.460938 171.019531 C 192.839844 170.539062 197.160156 164.996094 197.160156 164.996094 C 197.160156 164.996094 199.046875 165.402344 199.183594 166.363281 C 199.464844 168.292969 197.8125 171.453125 195.460938 171.019531 " fill-opacity="1" fill-rule="nonzero"/><path fill="#8ed2f3" d="M 196.472656 171.976562 C 196.472656 167.296875 200.207031 163.796875 203.15625 164.195312 C 207.175781 164.742188 221.320312 170.699219 221.320312 170.699219 L 221.320312 171.976562 L 196.472656 171.976562 " fill-opacity="1" fill-rule="nonzero"/><path fill="#31597d" d="M 202.828125 235.308594 C 199.167969 233.320312 199.472656 232.347656 199.472656 232.347656 C 199.472656 232.347656 209.484375 220.425781 214.703125 222.183594 C 218.308594 223.402344 219.550781 230.0625 218.109375 230.628906 C 216.664062 231.195312 202.828125 235.308594 202.828125 235.308594 " fill-opacity="1" fill-rule="nonzero"/><path fill="#31597d" d="M 221.398438 293.214844 C 220.257812 282.441406 211.085938 288.1875 212.152344 292.875 C 213.21875 297.5625 221.398438 293.214844 221.398438 293.214844 " fill-opacity="1" fill-rule="nonzero"/><path fill="#8ed2f3" d="M 219.140625 231.058594 C 228.449219 240.628906 220.921875 290.742188 220.921875 290.742188 C 218.566406 289.425781 215.628906 289.640625 212.242188 291.03125 C 212.242188 291.03125 207.996094 280.75 204.691406 261.839844 C 201.625 244.3125 199.691406 233.902344 206.800781 231.582031 C 215.546875 228.730469 219.140625 231.058594 219.140625 231.058594 " fill-opacity="1" fill-rule="nonzero"/><path fill="#6893d4" d="M 213.292969 290.554688 C 213.277344 290.035156 211.582031 238.792969 202.113281 238.792969 C 202.09375 238.792969 202.074219 238.796875 202.050781 238.796875 L 202.039062 238.296875 C 202.0625 238.296875 202.085938 238.296875 202.109375 238.296875 C 212.0625 238.296875 213.730469 288.40625 213.796875 290.542969 L 213.292969 290.554688 " fill-opacity="1" fill-rule="nonzero"/><path fill="#b8e2f8" d="M 240.117188 305.167969 C 240.117188 305.167969 227.257812 296.1875 222.828125 293.648438 C 220.957031 292.578125 214.949219 292.117188 212.519531 294.046875 C 210.09375 295.976562 210.304688 304.34375 210.304688 304.34375 L 240.117188 305.167969 " fill-opacity="1" fill-rule="nonzero"/><path fill="#31597d" d="M 240.117188 305.167969 C 241.464844 307.511719 240.90625 309.0625 240.90625 309.0625 L 210.082031 306.742188 C 210.082031 306.742188 210.085938 299.566406 213.90625 299.414062 C 217.726562 299.257812 217.671875 303.503906 217.671875 303.503906 L 240.117188 305.167969 " fill-opacity="1" fill-rule="nonzero"/><path fill="#6893d4" d="M 240.050781 305.410156 C 239.199219 305.167969 219.132812 299.515625 215.769531 292.949219 L 216.210938 292.71875 C 219.476562 299.089844 239.980469 304.871094 240.1875 304.925781 L 240.050781 305.410156 " fill-opacity="1" fill-rule="nonzero"/><path fill="#31597d" d="M 174.566406 239.261719 C 172.601562 234.824219 187.042969 224.84375 192.789062 228.203125 C 195.492188 229.78125 197.933594 235.25 193.113281 236.992188 C 189.644531 238.246094 176.121094 242.777344 174.566406 239.261719 " fill-opacity="1" fill-rule="nonzero"/><path fill="#31597d" d="M 188.242188 297.597656 C 188.554688 286.765625 178.695312 291.234375 179.125 296.023438 C 179.554688 300.808594 188.242188 297.597656 188.242188 297.597656 " fill-opacity="1" fill-rule="nonzero"/><path fill="#b8e2f8" d="M 195.492188 235.785156 C 203.441406 246.507812 188.101562 295.078125 188.101562 295.078125 C 185.941406 293.460938 183.003906 293.28125 179.460938 294.207031 C 179.460938 294.207031 176.625 283.453125 175.871094 264.269531 C 175.175781 246.488281 174.648438 235.914062 182.003906 234.5625 C 191.050781 232.902344 195.492188 235.785156 195.492188 235.785156 " fill-opacity="1" fill-rule="nonzero"/><path fill="#6893d4" d="M 181.0625 293.929688 L 180.566406 293.875 C 180.617188 293.359375 185.800781 242.128906 176.339844 241.078125 L 176.390625 240.582031 C 186.34375 241.6875 181.28125 291.796875 181.0625 293.929688 " fill-opacity="1" fill-rule="nonzero"/><path fill="#b8e2f8" d="M 207.792969 307.097656 C 207.792969 307.097656 194.292969 299.109375 189.683594 296.910156 C 187.742188 295.984375 181.714844 295.976562 179.4375 298.082031 C 177.164062 300.183594 178 308.515625 178 308.515625 L 207.792969 307.097656 " fill-opacity="1" fill-rule="nonzero"/><path fill="#31597d" d="M 207.792969 307.097656 C 209.3125 309.335938 208.871094 310.921875 208.871094 310.921875 L 177.957031 310.921875 C 177.957031 310.921875 177.425781 303.769531 181.222656 303.328125 C 185.019531 302.886719 185.285156 307.128906 185.285156 307.128906 L 207.792969 307.097656 " fill-opacity="1" fill-rule="nonzero"/><path fill="#6893d4" d="M 207.742188 307.339844 C 206.875 307.171875 186.4375 303.035156 182.589844 296.742188 L 183.019531 296.484375 C 186.753906 302.589844 207.628906 306.808594 207.839844 306.851562 L 207.742188 307.339844 " fill-opacity="1" fill-rule="nonzero"/><path fill="#6893d4" d="M 172.5625 154.957031 L 172.066406 154.878906 C 172.082031 154.800781 173.304688 147.171875 171.050781 141.835938 C 170.210938 139.84375 168.550781 138.6875 166.570312 138.6875 C 166.460938 138.6875 166.351562 138.691406 166.242188 138.699219 C 163.261719 138.890625 159.300781 141.878906 157.121094 149.703125 L 156.640625 149.570312 C 158.890625 141.492188 163.058594 138.398438 166.207031 138.199219 C 166.328125 138.191406 166.441406 138.1875 166.558594 138.1875 C 168.726562 138.1875 170.601562 139.484375 171.511719 141.644531 C 173.824219 147.113281 172.578125 154.882812 172.5625 154.957031 " fill-opacity="1" fill-rule="nonzero"/><path fill="#6893d4" d="M 166.964844 138.476562 L 166.46875 138.398438 C 166.484375 138.296875 168.054688 128.347656 166.46875 116.511719 L 166.964844 116.445312 C 168.558594 128.359375 166.980469 138.378906 166.964844 138.476562 " fill-opacity="1" fill-rule="nonzero"/><path fill="#6893d4" d="M 152.804688 175.421875 C 151.363281 166.027344 152.179688 160.113281 152.1875 160.054688 L 152.683594 160.128906 C 152.671875 160.183594 151.867188 166.03125 153.300781 175.351562 L 152.804688 175.421875 " fill-opacity="1" fill-rule="nonzero"/><path fill="#8ed2f3" d="M 127.210938 107.863281 C 136.492188 111.632812 161.460938 150.6875 160.359375 154.089844 C 159.253906 157.492188 156.894531 163.648438 153.050781 164.945312 C 149.207031 166.242188 128.164062 143.453125 122.851562 131.574219 C 115.675781 115.535156 127.210938 107.863281 127.210938 107.863281 " fill-opacity="1" fill-rule="nonzero"/><path fill="#31597d" d="M 160.359375 153.519531 C 152.773438 157.816406 153.050781 164.945312 153.050781 164.945312 C 153.050781 164.945312 156.363281 167.5625 157.605469 166.335938 C 158.847656 165.105469 160.359375 153.519531 160.359375 153.519531 " fill-opacity="1" fill-rule="nonzero"/><path fill="#6893d4" d="M 144.074219 176.695312 C 142.714844 172.957031 142.800781 163.851562 142.828125 162.300781 C 141.46875 162.03125 133.910156 160.273438 126.710938 153.335938 L 127.058594 152.972656 C 134.851562 160.484375 143.039062 161.828125 143.125 161.84375 L 143.335938 161.875 L 143.335938 162.097656 C 143.332031 162.199219 143.117188 172.605469 144.542969 176.523438 L 144.074219 176.695312 " fill-opacity="1" fill-rule="nonzero"/><path fill="#6893d4" d="M 146.425781 161.332031 C 145.335938 156.207031 150.761719 151.359375 151.859375 150.441406 L 127.9375 115.839844 C 127.261719 116.128906 124.652344 117.40625 120.6875 121.375 L 120.328125 121.023438 C 125.042969 116.300781 127.832031 115.339844 127.949219 115.296875 L 128.128906 115.242188 L 128.234375 115.394531 L 152.535156 150.539062 L 152.351562 150.683594 C 152.285156 150.734375 145.796875 155.957031 146.914062 161.226562 L 146.425781 161.332031 " fill-opacity="1" fill-rule="nonzero"/><path fill="#6893d4" d="M 190.144531 167.363281 L 189.886719 167.292969 C 189.730469 167.25 174.019531 163.070312 159.085938 161.527344 L 159.140625 161.03125 C 173.074219 162.46875 187.683594 166.199219 189.765625 166.742188 C 189.964844 165.925781 190.6875 163.425781 192.21875 162.515625 L 192.476562 162.945312 C 190.859375 163.90625 190.203125 167.066406 190.195312 167.101562 L 190.144531 167.363281 " fill-opacity="1" fill-rule="nonzero"/><path fill="#6893d4" d="M 210.789062 152.148438 C 210.671875 152.054688 198.941406 142.445312 192.128906 130.59375 L 192.566406 130.34375 C 199.332031 142.117188 210.988281 151.664062 211.105469 151.761719 L 210.789062 152.148438 " fill-opacity="1" fill-rule="nonzero"/><path fill="#6893d4" d="M 175.058594 236.128906 L 135.136719 217.09375 L 135.128906 216.949219 C 135.113281 216.8125 134.234375 203.425781 151.261719 200.511719 L 151.351562 201.007812 C 135.703125 203.679688 135.574219 215.347656 135.617188 216.765625 L 175.277344 235.675781 L 175.058594 236.128906 " fill-opacity="1" fill-rule="nonzero"/><path fill="#6893d4" d="M 205.144531 226.636719 C 204.949219 226.464844 185.484375 209.125 168.503906 200.984375 L 168.722656 200.535156 C 185.765625 208.707031 205.277344 226.09375 205.472656 226.265625 L 205.144531 226.636719 " fill-opacity="1" fill-rule="nonzero"/><path fill="#6893d4" d="M 167.277344 103.160156 L 167.066406 102.710938 C 170.203125 101.226562 173.992188 95.339844 174.425781 94.648438 L 173.585938 79.382812 C 173.113281 78.824219 169.207031 74.457031 160.257812 70.664062 L 160.457031 70.199219 C 170.109375 74.292969 173.992188 79.082031 174.027344 79.132812 L 174.078125 79.195312 L 174.082031 79.273438 L 174.9375 94.785156 L 174.894531 94.847656 C 174.722656 95.121094 170.730469 101.527344 167.277344 103.160156 " fill-opacity="1" fill-rule="nonzero"/><path fill="#6893d4" d="M 185.476562 92.898438 L 185.082031 78.117188 C 185.085938 78.058594 185.328125 75.871094 185.476562 72.839844 L 185.980469 72.863281 C 185.828125 75.910156 185.585938 78.117188 185.582031 78.136719 L 185.980469 92.886719 L 185.476562 92.898438 " fill-opacity="1" fill-rule="nonzero"/><path fill="#252839" d="M 188.335938 84.867188 C 188.417969 87.921875 187.480469 92.21875 180.296875 92.207031 C 170.457031 92.191406 165.183594 88.480469 165.101562 85.421875 C 165.023438 82.367188 172.503906 81.308594 179.988281 81.109375 C 187.472656 80.910156 188.253906 81.808594 188.335938 84.867188 " fill-opacity="1" fill-rule="nonzero"/><path fill="#31597d" d="M 161.1875 86.507812 C 161.457031 88.804688 160.714844 90.78125 159.53125 90.921875 C 158.34375 91.0625 157.164062 89.308594 156.894531 87.011719 C 156.625 84.710938 157.367188 82.734375 158.550781 82.597656 C 159.738281 82.457031 160.917969 84.207031 161.1875 86.507812 " fill-opacity="1" fill-rule="nonzero"/><path fill="#b8e2f8" d="M 159.800781 86.667969 C 160.035156 88.632812 159.398438 90.320312 158.386719 90.4375 C 157.375 90.558594 156.363281 89.0625 156.132812 87.101562 C 155.90625 85.136719 156.539062 83.449219 157.550781 83.328125 C 158.5625 83.210938 159.570312 84.703125 159.800781 86.667969 " fill-opacity="1" fill-rule="nonzero"/><path fill="#6893d4" d="M 156.828125 84.621094 C 156.820312 84.621094 156.816406 84.621094 156.8125 84.621094 C 156.742188 84.632812 156.683594 84.691406 156.644531 84.742188 C 156.402344 85.046875 156.207031 85.902344 156.34375 87.078125 C 156.511719 88.488281 157.042969 89.355469 157.347656 89.355469 C 157.355469 89.355469 157.363281 89.355469 157.367188 89.355469 C 157.667969 89.316406 158.003906 88.34375 157.835938 86.898438 C 157.699219 85.734375 157.304688 84.941406 157.003906 84.699219 C 156.9375 84.648438 156.875 84.621094 156.828125 84.621094 Z M 157.347656 89.855469 C 156.570312 89.855469 156.007812 88.507812 155.847656 87.132812 C 155.710938 85.976562 155.867188 84.914062 156.25 84.429688 C 156.425781 84.207031 156.621094 84.140625 156.75 84.128906 C 156.890625 84.109375 157.085938 84.128906 157.3125 84.304688 C 157.796875 84.6875 158.195312 85.683594 158.332031 86.839844 C 158.496094 88.261719 158.238281 89.75 157.425781 89.851562 C 157.398438 89.855469 157.371094 89.855469 157.347656 89.855469 " fill-opacity="1" fill-rule="nonzero"/><path fill="#fffffd" d="M 176.722656 87.027344 C 176.722656 87.894531 176.445312 88.601562 176.101562 88.601562 C 175.757812 88.601562 175.480469 87.894531 175.480469 87.027344 C 175.480469 86.15625 175.757812 85.449219 176.101562 85.449219 C 176.445312 85.449219 176.722656 86.15625 176.722656 87.027344 " fill-opacity="1" fill-rule="nonzero"/><path fill="#fffffd" d="M 184.71875 86.988281 C 184.71875 87.855469 184.441406 88.5625 184.097656 88.5625 C 183.757812 88.5625 183.476562 87.855469 183.476562 86.988281 C 183.476562 86.117188 183.757812 85.410156 184.097656 85.410156 C 184.441406 85.410156 184.71875 86.117188 184.71875 86.988281 " fill-opacity="1" fill-rule="nonzero"/><path fill="#4c2c44" d="M 50.742188 198.710938 L 320.609375 198.710938 C 322.550781 198.710938 324.125 197.132812 324.125 195.191406 L 324.125 193.917969 C 324.125 191.976562 322.550781 190.402344 320.609375 190.402344 L 50.742188 190.402344 C 48.800781 190.402344 47.226562 191.976562 47.226562 193.917969 L 47.226562 195.191406 C 47.226562 197.132812 48.800781 198.710938 50.742188 198.710938 " fill-opacity="1" fill-rule="nonzero"/><path fill="#4c2c44" d="M 335.097656 319.589844 C 334.199219 319.589844 333.410156 318.929688 333.28125 318.011719 L 316.339844 198.96875 C 316.191406 197.964844 316.890625 197.035156 317.898438 196.890625 C 318.890625 196.746094 319.832031 197.445312 319.972656 198.453125 L 336.914062 317.496094 C 337.0625 318.5 336.363281 319.429688 335.355469 319.570312 C 335.269531 319.582031 335.183594 319.589844 335.097656 319.589844 " fill-opacity="1" fill-rule="nonzero"/><path fill="#4c2c44" d="M 335.097656 319.589844 C 334.199219 319.589844 333.410156 318.929688 333.28125 318.011719 L 316.339844 198.96875 C 316.191406 197.964844 316.890625 197.035156 317.898438 196.890625 C 318.890625 196.746094 319.832031 197.445312 319.972656 198.453125 L 336.914062 317.496094 C 337.0625 318.5 336.363281 319.429688 335.355469 319.570312 C 335.269531 319.582031 335.183594 319.589844 335.097656 319.589844 " fill-opacity="1" fill-rule="nonzero"/><path fill="#4c2c44" d="M 291.101562 304.164062 C 291.039062 304.164062 290.980469 304.15625 290.921875 304.152344 C 289.910156 304.050781 289.171875 303.152344 289.269531 302.144531 L 299.4375 198.53125 C 299.535156 197.515625 300.476562 196.777344 301.441406 196.882812 C 302.453125 196.980469 303.191406 197.878906 303.089844 198.886719 L 292.925781 302.503906 C 292.835938 303.449219 292.035156 304.164062 291.101562 304.164062 " fill-opacity="1" fill-rule="nonzero"/><path fill="#4c2c44" d="M 75.304688 319.589844 C 74.3125 319.589844 73.492188 318.792969 73.46875 317.792969 L 70.796875 198.75 C 70.769531 197.738281 71.578125 196.894531 72.59375 196.871094 C 73.609375 196.9375 74.445312 197.65625 74.46875 198.671875 L 77.144531 317.714844 C 77.167969 318.726562 76.359375 319.566406 75.347656 319.589844 C 75.332031 319.589844 75.320312 319.589844 75.304688 319.589844 " fill-opacity="1" fill-rule="nonzero"/><path fill="#4c2c44" d="M 36.613281 304.164062 C 36.492188 304.164062 36.378906 304.152344 36.257812 304.128906 C 35.261719 303.933594 34.613281 302.96875 34.804688 301.972656 L 54.984375 198.359375 C 55.179688 197.359375 56.15625 196.710938 57.140625 196.90625 C 58.140625 197.101562 58.785156 198.066406 58.59375 199.058594 L 38.414062 302.675781 C 38.242188 303.550781 37.472656 304.164062 36.613281 304.164062 " fill-opacity="1" fill-rule="nonzero"/><path fill="#3d2238" d="M 50.527344 198.710938 L 65.757812 198.710938 C 67.582031 198.710938 69.058594 197.230469 69.058594 195.410156 L 69.058594 193.703125 C 69.058594 191.878906 67.582031 190.402344 65.757812 190.402344 L 50.527344 190.402344 C 48.703125 190.402344 47.226562 191.878906 47.226562 193.703125 L 47.226562 195.410156 C 47.226562 197.230469 48.703125 198.710938 50.527344 198.710938 " fill-opacity="1" fill-rule="nonzero"/><g clip-path="url(#b1085995db)"><path fill="#fab8b9" d="M 16.367188 190.402344 L 356.03125 190.402344 C 358.503906 190.402344 360.511719 188.398438 360.511719 185.921875 L 360.511719 179.859375 C 360.511719 177.386719 358.503906 175.382812 356.03125 175.382812 L 16.367188 175.382812 C 13.894531 175.382812 11.890625 177.386719 11.890625 179.859375 L 11.890625 185.921875 C 11.890625 188.398438 13.894531 190.402344 16.367188 190.402344 " fill-opacity="1" fill-rule="nonzero"/></g><g clip-path="url(#30e21cbbfd)"><path fill="#f89a9c" d="M 11.886719 177.628906 L 11.886719 188.140625 C 11.886719 189.386719 12.914062 190.417969 14.164062 190.417969 L 87.328125 190.417969 C 88.578125 190.417969 89.570312 189.386719 89.570312 188.140625 L 89.570312 177.628906 C 89.570312 176.378906 88.578125 175.386719 87.328125 175.386719 L 14.164062 175.386719 C 12.914062 175.386719 11.886719 176.378906 11.886719 177.628906 " fill-opacity="1" fill-rule="nonzero"/></g><path fill="#7490c1" d="M 203.523438 171.75 L 259.710938 171.75 L 266.546875 132.566406 C 266.738281 131.476562 265.953125 130.46875 264.917969 130.46875 L 212.097656 130.46875 C 211.300781 130.46875 210.617188 131.078125 210.46875 131.917969 L 203.523438 171.75 " fill-opacity="1" fill-rule="nonzero"/><path fill="#35508c" d="M 182.769531 175.382812 L 259.710938 175.382812 L 259.710938 171.75 L 185.121094 171.75 C 184.199219 171.75 183.398438 172.433594 183.191406 173.398438 L 182.769531 175.382812 " fill-opacity="1" fill-rule="nonzero"/><path fill="#afc8e8" d="M 231.320312 147.460938 C 231.320312 148.066406 234.230469 148.558594 237.816406 148.558594 C 241.402344 148.558594 244.308594 148.066406 244.308594 147.460938 C 244.308594 146.855469 241.402344 146.367188 237.816406 146.367188 C 234.230469 146.367188 231.320312 146.855469 231.320312 147.460938 " fill-opacity="1" fill-rule="nonzero"/></svg>