<svg xmlns="http://www.w3.org/2000/svg" xmlns:xlink="http://www.w3.org/1999/xlink" width="500" zoomAndPan="magnify" viewBox="0 0 375 374.999991" height="500" preserveAspectRatio="xMidYMid meet" version="1.0"><defs><clipPath id="7fde5fcd34"><path d="M 20.15625 176.574219 L 359.996094 176.574219 L 359.996094 191.484375 L 20.15625 191.484375 Z M 20.15625 176.574219 " clip-rule="nonzero"/></clipPath><clipPath id="c66cf0693b"><path d="M 284.210938 176.574219 L 359.996094 176.574219 L 359.996094 191.484375 L 284.210938 191.484375 Z M 284.210938 176.574219 " clip-rule="nonzero"/></clipPath><clipPath id="9c403e7dde"><path d="M 216.359375 315.375 L 266.988281 315.375 L 266.988281 329.085938 L 216.359375 329.085938 Z M 216.359375 315.375 " clip-rule="nonzero"/></clipPath></defs><path fill="#dd6070" d="M 262.941406 196.894531 C 259.132812 201.910156 254.382812 204.996094 248.855469 204.96875 C 236.5625 204.941406 227.089844 203.839844 222.957031 193.164062 C 220.808594 187.71875 220.058594 179.753906 221.050781 168.136719 C 221.105469 167.253906 221.183594 166.339844 221.292969 165.402344 C 222.097656 157.460938 222.957031 150.539062 224.058594 144.613281 C 226.257812 132.566406 229.371094 124.519531 234.953125 120.039062 C 239.003906 116.742188 245.875 114.085938 253.683594 115.828125 C 278.777344 121.382812 278.828125 175.996094 262.941406 196.894531 " fill-opacity="1" fill-rule="nonzero"/><path fill="#252839" d="M 234.289062 299.023438 L 228.808594 299.023438 L 228.808594 239.628906 L 234.289062 239.628906 L 234.289062 299.023438 " fill-opacity="1" fill-rule="nonzero"/><path fill="#252839" d="M 236.390625 285.570312 L 226.183594 285.570312 C 225.179688 285.570312 224.363281 284.757812 224.363281 283.753906 L 224.363281 251.59375 C 224.363281 250.589844 225.179688 249.777344 226.183594 249.777344 L 236.390625 249.777344 C 237.398438 249.777344 238.210938 250.589844 238.210938 251.59375 L 238.210938 283.753906 C 238.210938 284.757812 237.398438 285.570312 236.390625 285.570312 " fill-opacity="1" fill-rule="nonzero"/><path fill="#252839" d="M 261.980469 303.761719 C 261.53125 303.761719 261.082031 303.601562 260.726562 303.28125 C 260.664062 303.226562 253.148438 296.917969 231.546875 296.917969 C 210.019531 296.917969 202.992188 303.183594 202.925781 303.25 C 202.167969 303.945312 200.996094 303.917969 200.28125 303.164062 C 199.578125 302.421875 199.59375 301.253906 200.335938 300.539062 C 200.648438 300.238281 208.242188 293.171875 231.546875 293.171875 C 254.816406 293.171875 262.898438 300.195312 263.230469 300.492188 C 264 301.1875 264.066406 302.371094 263.375 303.140625 C 263.003906 303.550781 262.492188 303.761719 261.980469 303.761719 " fill-opacity="1" fill-rule="nonzero"/><path fill="#252839" d="M 265.703125 303.394531 C 265.703125 305.089844 264.328125 306.464844 262.628906 306.464844 C 260.933594 306.464844 259.554688 305.089844 259.554688 303.394531 C 259.554688 301.699219 260.933594 300.324219 262.628906 300.324219 C 264.328125 300.324219 265.703125 301.699219 265.703125 303.394531 " fill-opacity="1" fill-rule="nonzero"/><path fill="#252839" d="M 234.621094 300.425781 C 234.621094 302.121094 233.246094 303.496094 231.546875 303.496094 C 229.851562 303.496094 228.476562 302.121094 228.476562 300.425781 C 228.476562 298.730469 229.851562 297.351562 231.546875 297.351562 C 233.246094 297.351562 234.621094 298.730469 234.621094 300.425781 " fill-opacity="1" fill-rule="nonzero"/><path fill="#252839" d="M 263.441406 239.628906 L 207.589844 239.628906 L 207.589844 226.835938 L 267.90625 226.835938 L 267.90625 235.167969 C 267.90625 237.632812 265.90625 239.628906 263.441406 239.628906 " fill-opacity="1" fill-rule="nonzero"/><path fill="#bc3e4c" d="M 267.90625 226.835938 L 195.050781 226.835938 L 195.050781 223.003906 C 195.050781 218.058594 199.0625 214.046875 204.011719 214.046875 L 258.945312 214.046875 C 263.890625 214.046875 267.90625 218.058594 267.90625 223.003906 L 267.90625 226.835938 " fill-opacity="1" fill-rule="nonzero"/><path fill="#252839" d="M 205.085938 302.480469 C 205.085938 304.117188 203.757812 305.445312 202.121094 305.445312 C 200.480469 305.445312 199.152344 304.117188 199.152344 302.480469 C 199.152344 300.839844 200.480469 299.515625 202.121094 299.515625 C 203.757812 299.515625 205.085938 300.839844 205.085938 302.480469 " fill-opacity="1" fill-rule="nonzero"/><path fill="#254995" d="M 333.820312 176.851562 L 302.097656 176.851562 C 301.472656 176.851562 300.960938 176.34375 300.960938 175.714844 L 300.960938 168.117188 C 300.960938 167.488281 301.472656 166.980469 302.097656 166.980469 L 333.820312 166.980469 C 334.449219 166.980469 334.957031 167.488281 334.957031 168.117188 L 334.957031 175.714844 C 334.957031 176.34375 334.449219 176.851562 333.820312 176.851562 " fill-opacity="1" fill-rule="nonzero"/><path fill="#3d5db4" d="M 327.832031 176.851562 L 296.105469 176.851562 C 295.480469 176.851562 294.972656 176.34375 294.972656 175.714844 L 294.972656 168.117188 C 294.972656 167.488281 295.480469 166.980469 296.105469 166.980469 L 327.832031 166.980469 C 328.457031 166.980469 328.964844 167.488281 328.964844 168.117188 L 328.964844 175.714844 C 328.964844 176.34375 328.457031 176.851562 327.832031 176.851562 " fill-opacity="1" fill-rule="nonzero"/><path fill="#264993" d="M 301.714844 172.105469 C 301.714844 173.40625 300.839844 174.457031 299.761719 174.457031 C 298.679688 174.457031 297.804688 173.40625 297.804688 172.105469 C 297.804688 170.808594 298.679688 169.753906 299.761719 169.753906 C 300.839844 169.753906 301.714844 170.808594 301.714844 172.105469 " fill-opacity="1" fill-rule="nonzero"/><path fill="#254995" d="M 329.285156 167.515625 L 296.070312 167.515625 C 295.839844 167.515625 295.65625 167.328125 295.65625 167.101562 C 295.65625 166.871094 295.839844 166.6875 296.070312 166.6875 L 329.285156 166.6875 C 329.515625 166.6875 329.703125 166.871094 329.703125 167.101562 C 329.703125 167.328125 329.515625 167.515625 329.285156 167.515625 " fill-opacity="1" fill-rule="nonzero"/><path fill="#e62753" d="M 330.34375 166.980469 L 298.625 166.980469 C 297.996094 166.980469 297.488281 166.472656 297.488281 165.847656 L 297.488281 158.246094 C 297.488281 157.621094 297.996094 157.113281 298.625 157.113281 L 330.34375 157.113281 C 330.972656 157.113281 331.480469 157.621094 331.480469 158.246094 L 331.480469 165.847656 C 331.480469 166.472656 330.972656 166.980469 330.34375 166.980469 " fill-opacity="1" fill-rule="nonzero"/><path fill="#f03c68" d="M 324.355469 166.980469 L 292.632812 166.980469 C 292.003906 166.980469 291.496094 166.472656 291.496094 165.847656 L 291.496094 158.246094 C 291.496094 157.621094 292.003906 157.113281 292.632812 157.113281 L 324.355469 157.113281 C 324.980469 157.113281 325.492188 157.621094 325.492188 158.246094 L 325.492188 165.847656 C 325.492188 166.472656 324.980469 166.980469 324.355469 166.980469 " fill-opacity="1" fill-rule="nonzero"/><path fill="#8c1436" d="M 298.242188 162.234375 C 298.242188 163.535156 297.363281 164.585938 296.285156 164.585938 C 295.203125 164.585938 294.332031 163.535156 294.332031 162.234375 C 294.332031 160.9375 295.203125 159.886719 296.285156 159.886719 C 297.363281 159.886719 298.242188 160.9375 298.242188 162.234375 " fill-opacity="1" fill-rule="nonzero"/><path fill="#47283f" d="M 50.972656 176.746094 L 37.1875 176.746094 L 36.101562 172.078125 L 52.058594 172.078125 L 50.972656 176.746094 " fill-opacity="1" fill-rule="nonzero"/><path fill="#528d82" d="M 42.539062 147.980469 C 26.816406 133.992188 28.972656 108.898438 28.972656 108.898438 C 28.972656 108.898438 35.734375 117.988281 39.539062 130.28125 C 43.34375 142.578125 42.539062 147.980469 42.539062 147.980469 " fill-opacity="1" fill-rule="nonzero"/><path fill="#39665e" d="M 45.675781 147.980469 C 61.398438 133.992188 59.246094 108.898438 59.246094 108.898438 C 59.246094 108.898438 52.480469 117.988281 48.675781 130.28125 C 44.871094 142.578125 45.675781 147.980469 45.675781 147.980469 " fill-opacity="1" fill-rule="nonzero"/><path fill="#528d82" d="M 43.550781 147.980469 C 32.421875 132.71875 43.925781 98.886719 43.925781 98.886719 C 43.925781 98.886719 50.480469 119.605469 49.300781 133.410156 C 48.113281 147.21875 43.550781 147.980469 43.550781 147.980469 " fill-opacity="1" fill-rule="nonzero"/><path fill="#5c3c53" d="M 50.207031 150.285156 C 50.050781 148.9375 49.859375 147.585938 49.644531 146.226562 L 38.425781 146.226562 C 38.171875 147.722656 37.953125 149.234375 37.777344 150.753906 C 37.332031 154.5625 36.277344 158.289062 34.625 161.746094 C 33.726562 163.628906 33.210938 165.507812 33.210938 166.949219 C 33.210938 171.394531 38.078125 174.996094 44.082031 174.996094 C 50.082031 174.996094 54.949219 171.394531 54.949219 166.949219 C 54.949219 165.449219 54.394531 163.484375 53.429688 161.53125 C 51.691406 158.011719 50.671875 154.183594 50.207031 150.285156 " fill-opacity="1" fill-rule="nonzero"/><path fill="#39665e" d="M 43.996094 145.578125 C 42.585938 139.09375 42.066406 132.429688 42 125.796875 C 42.019531 119.160156 42.394531 112.503906 43.535156 105.96875 C 43.003906 112.574219 42.671875 119.183594 42.738281 125.792969 C 42.710938 129.097656 42.867188 132.398438 43.058594 135.699219 C 43.242188 139 43.597656 142.285156 43.996094 145.578125 " fill-opacity="1" fill-rule="nonzero"/><path fill="#39665e" d="M 30.261719 113.902344 C 30.605469 116.644531 31.1875 119.34375 31.859375 122.007812 C 32.546875 124.671875 33.324219 127.3125 34.316406 129.875 C 36.160156 135.054688 38.707031 139.949219 41.601562 144.660156 C 39.945312 142.449219 38.355469 140.164062 37.066406 137.703125 C 35.710938 135.28125 34.617188 132.722656 33.625 130.128906 C 31.757812 124.910156 30.421875 119.445312 30.261719 113.902344 " fill-opacity="1" fill-rule="nonzero"/><path fill="#8d517e" d="M 44.023438 163.820312 C 38.050781 163.820312 34.683594 161.910156 34.539062 161.832031 C 34.335938 161.710938 34.261719 161.445312 34.382812 161.234375 C 34.503906 161.03125 34.765625 160.953125 34.980469 161.078125 C 35.011719 161.097656 38.300781 162.949219 44.023438 162.949219 C 49.761719 162.949219 53.191406 161.164062 53.222656 161.144531 C 53.433594 161.039062 53.699219 161.113281 53.8125 161.324219 C 53.929688 161.539062 53.851562 161.800781 53.636719 161.914062 C 53.488281 161.996094 49.996094 163.820312 44.023438 163.820312 " fill-opacity="1" fill-rule="nonzero"/><path fill="#1e2a3f" d="M 114.515625 176.746094 L 77.925781 176.746094 L 77.925781 169 L 114.515625 169 C 116.035156 169 117.269531 170.234375 117.269531 171.753906 L 117.269531 173.992188 C 117.269531 175.515625 116.035156 176.746094 114.515625 176.746094 " fill-opacity="1" fill-rule="nonzero"/><path fill="#fcd75f" d="M 102.742188 175.554688 L 77.402344 175.554688 L 77.402344 170.191406 L 102.742188 170.191406 C 103.796875 170.191406 104.648438 171.046875 104.648438 172.097656 L 104.648438 173.648438 C 104.648438 174.703125 103.796875 175.554688 102.742188 175.554688 " fill-opacity="1" fill-rule="nonzero"/><path fill="#edbce1" d="M 89.542969 167.15625 L 60.386719 176.582031 C 60.578125 174.097656 59.910156 172.097656 58.566406 170.472656 L 87.722656 161.046875 C 89.339844 160.523438 91.0625 161.46875 91.5625 163.15625 C 92.066406 164.839844 91.160156 166.632812 89.542969 167.15625 " fill-opacity="1" fill-rule="nonzero"/><path fill="#bc3e4c" d="M 90.144531 166.960938 L 67 174.445312 C 67.015625 172.015625 66.359375 170.011719 65.179688 168.335938 L 88.328125 160.851562 C 89.613281 160.4375 91.0625 161.46875 91.5625 163.15625 C 92.066406 164.839844 91.429688 166.542969 90.144531 166.960938 " fill-opacity="1" fill-rule="nonzero"/><path fill="#4c2b46" d="M 104.714844 168.898438 L 82.640625 158.976562 C 84.050781 157.171875 84.929688 155.234375 85.070312 153.105469 L 107.144531 163.027344 C 108.535156 163.652344 109.175781 165.332031 108.578125 166.777344 L 108.316406 167.40625 C 107.714844 168.855469 106.105469 169.523438 104.714844 168.898438 " fill-opacity="1" fill-rule="nonzero"/><path fill="#edbce1" d="M 101.414062 166.675781 L 82.898438 158.355469 C 84.039062 156.945312 84.734375 155.417969 84.816406 153.730469 L 103.328125 162.050781 C 104.496094 162.574219 105.058594 163.921875 104.585938 165.0625 L 104.378906 165.558594 C 103.90625 166.699219 102.578125 167.199219 101.414062 166.675781 " fill-opacity="1" fill-rule="nonzero"/><path fill="#bc3e4c" d="M 262.941406 196.894531 C 259.132812 201.910156 254.382812 204.996094 248.855469 204.96875 C 236.5625 204.941406 227.089844 203.839844 222.957031 193.164062 L 221.050781 168.136719 L 219.601562 149.144531 L 224.058594 144.613281 L 224.273438 144.398438 C 256.304688 162.503906 264.847656 172.054688 262.941406 196.894531 " fill-opacity="1" fill-rule="nonzero"/><path fill="#f57a6b" d="M 206.929688 236.082031 C 206.929688 236.082031 205.546875 237.222656 204.339844 238.292969 C 203.957031 238.640625 203.613281 238.949219 203.335938 239.226562 C 202.4375 240.125 201.296875 241.195312 200.125 242.40625 C 200.089844 242.40625 200.089844 242.4375 200.089844 242.4375 L 199.675781 242.855469 C 196.597656 245.894531 193.246094 249.449219 192.070312 251.316406 C 189.722656 255.046875 188.617188 258.742188 182.535156 271.28125 C 177.90625 280.8125 167.976562 296.921875 167.976562 296.921875 L 163.035156 294.328125 C 163.035156 294.328125 177.800781 238.191406 189.03125 226.34375 L 205.238281 235.324219 L 206.929688 236.082031 " fill-opacity="1" fill-rule="nonzero"/><path fill="#5d1e3c" d="M 161.171875 296.476562 C 150.472656 304.992188 147.300781 309.277344 149.164062 310.410156 C 151.84375 312.035156 163.914062 306.066406 165.804688 305.527344 C 167.625 305.007812 169.34375 299.6875 167.988281 296.914062 C 166.636719 294.140625 161.171875 296.476562 161.171875 296.476562 " fill-opacity="1" fill-rule="nonzero"/><path fill="#f35c50" d="M 206.929688 236.082031 C 206.929688 236.082031 205.546875 237.222656 204.339844 238.292969 C 201.710938 239.367188 200.332031 241.988281 200.125 242.40625 C 200.089844 242.40625 200.089844 242.4375 200.089844 242.4375 C 200.089844 242.4375 199.363281 232.871094 189.03125 226.34375 L 205.238281 235.324219 L 206.929688 236.082031 " fill-opacity="1" fill-rule="nonzero"/><path fill="#5d1e3c" d="M 178.429688 300.71875 C 167.300781 308.78125 164.769531 313.628906 166.589844 314.828125 C 168.652344 316.183594 181.066406 310.625 183.058594 309.734375 C 184.785156 308.964844 186.601562 303.925781 185.246094 301.15625 C 183.890625 298.378906 178.429688 300.71875 178.429688 300.71875 " fill-opacity="1" fill-rule="nonzero"/><path fill="#f57a6b" d="M 220.578125 247.445312 C 220.578125 247.445312 210.246094 255.667969 205.824219 266.960938 C 200.710938 279.984375 184.769531 301.859375 184.769531 301.859375 L 179.449219 299.335938 C 179.449219 299.335938 193.523438 260.089844 195.320312 254.875 C 196.289062 251.972656 198.464844 246.410156 200.261719 242.023438 L 200.261719 241.988281 C 200.953125 240.261719 201.539062 238.742188 202.023438 237.636719 C 202.542969 236.359375 203.496094 234.257812 203.496094 234.257812 L 220.578125 247.445312 " fill-opacity="1" fill-rule="nonzero"/><path fill="#f57a6b" d="M 163.050781 294.328125 C 163.050781 294.328125 154.515625 301.347656 155.945312 303.238281 C 156.832031 304.410156 167.402344 301.332031 167.988281 296.914062 C 168.578125 292.496094 163.050781 294.328125 163.050781 294.328125 " fill-opacity="1" fill-rule="nonzero"/><path fill="#f57a6b" d="M 180.011719 298.632812 C 180.011719 298.632812 170.78125 305.8125 172.082031 307.332031 C 173.125 308.550781 184.359375 305.640625 184.949219 301.21875 C 185.535156 296.800781 180.011719 298.632812 180.011719 298.632812 " fill-opacity="1" fill-rule="nonzero"/><path fill="#4b3f89" d="M 265 203.265625 C 264.789062 206.457031 264.222656 210.078125 262.960938 213.566406 C 262.558594 214.71875 262.050781 215.84375 261.484375 216.945312 C 255.582031 228.210938 237.816406 236.660156 232.179688 240.363281 C 225.582031 244.789062 220.589844 247.445312 220.589844 247.445312 C 206.527344 237.144531 196.488281 231.054688 189.027344 226.335938 C 189.027344 226.335938 189.863281 225.179688 191.445312 223.277344 C 194.773438 219.117188 201.402344 211.554688 209.773438 205.140625 C 212.054688 203.34375 214.46875 201.65625 217.019531 200.152344 C 217.285156 199.992188 217.554688 199.832031 217.824219 199.671875 C 220.265625 198.246094 222.761719 197.015625 225.367188 196.074219 C 229.148438 194.625 233.066406 193.769531 237.039062 193.714844 C 259.445312 193.367188 264.816406 193.554688 264.816406 193.554688 C 264.816406 193.554688 265.429688 197.765625 265 203.265625 " fill-opacity="1" fill-rule="nonzero"/><path fill="#352d71" d="M 206.929688 215.972656 C 211.683594 215.851562 216.40625 215.539062 221.070312 214.746094 C 225.75 214.035156 230.359375 212.945312 234.902344 211.550781 C 230.539062 213.472656 225.871094 214.617188 221.175781 215.410156 C 216.46875 216.128906 211.671875 216.402344 206.929688 215.972656 " fill-opacity="1" fill-rule="nonzero"/><path fill="#352d71" d="M 204.410156 221.390625 C 206.167969 220.867188 207.972656 220.636719 209.78125 220.433594 C 211.59375 220.3125 213.417969 220.203125 215.234375 220.496094 C 211.621094 220.953125 208.066406 221.351562 204.410156 221.390625 " fill-opacity="1" fill-rule="nonzero"/><path fill="#fccd5c" d="M 251.136719 184.824219 C 249.390625 211.164062 175.804688 183.617188 175.804688 183.617188 L 179.777344 158.910156 L 181.441406 148.609375 C 181.738281 148.476562 182.113281 148.285156 182.542969 148.101562 C 184.636719 147.1875 187.519531 147.980469 189.585938 147.28125 C 191.25 146.71875 192.910156 146.183594 194.550781 145.78125 C 222.757812 138.832031 230.816406 143.34375 247.027344 163.496094 C 250.34375 167.621094 250.867188 173.554688 251.164062 179.324219 C 251.269531 181.121094 251.269531 182.945312 251.136719 184.824219 " fill-opacity="1" fill-rule="nonzero"/><path fill="#eea92c" d="M 241.710938 178.472656 C 241.710938 178.472656 250.054688 174.683594 247.980469 164.847656 C 250.566406 168.640625 258.105469 176.648438 258.402344 182.417969 L 241.710938 178.472656 " fill-opacity="1" fill-rule="nonzero"/><path fill="#f57a6b" d="M 197.058594 171.230469 C 209.152344 171.09375 233.140625 163.371094 239.855469 166.085938 C 252.34375 171.132812 245.929688 177.121094 240.800781 179.042969 C 235.671875 180.964844 196.789062 176.746094 196.789062 176.746094 L 197.058594 171.230469 " fill-opacity="1" fill-rule="nonzero"/><path fill="#1d223e" d="M 166.371094 142.125 C 195.296875 137.003906 201.875 169.460938 179.386719 174.039062 C 173.167969 175.304688 167.609375 172.933594 166.320312 166.964844 C 164.285156 157.527344 166.371094 142.125 166.371094 142.125 " fill-opacity="1" fill-rule="nonzero"/><path fill="#f57a6b" d="M 196.015625 160.304688 C 195.503906 161.324219 194.726562 162.050781 194.082031 162.503906 C 193.546875 162.878906 193.117188 163.066406 193.117188 163.066406 L 188.742188 158.398438 L 183.75 153.0625 L 181.441406 150.59375 C 183.613281 150.378906 185.332031 150.21875 186.703125 150.085938 L 186.726562 150.085938 C 187.078125 150.058594 187.375 150.03125 187.667969 150.003906 L 187.695312 150.003906 C 190.941406 149.683594 191.667969 149.628906 191.667969 149.628906 C 191.667969 149.628906 195.691406 153.652344 196.363281 157.488281 C 196.550781 158.613281 196.363281 159.554688 196.015625 160.304688 " fill-opacity="1" fill-rule="nonzero"/><path fill="#ea4941" d="M 196.015625 160.304688 C 195.503906 161.324219 194.726562 162.050781 194.082031 162.503906 C 192.550781 161.457031 190.59375 159.902344 188.742188 158.398438 C 185.789062 155.957031 183.160156 153.625 183.160156 153.625 L 183.75 153.0625 L 186.703125 150.085938 L 186.726562 150.085938 C 187.078125 150.058594 187.375 150.03125 187.667969 150.003906 L 187.695312 150.003906 C 192.378906 152.917969 195.160156 156.808594 196.015625 160.304688 " fill-opacity="1" fill-rule="nonzero"/><path fill="#f57a6b" d="M 179.1875 148.335938 C 192.128906 149.730469 196.707031 160.410156 196.15625 163.617188 C 195.628906 166.675781 189.390625 170.890625 181.476562 170.355469 C 179.757812 170.238281 177.3125 168.578125 175.171875 169.570312 C 166.625 173.519531 162.207031 146.507812 179.1875 148.335938 " fill-opacity="1" fill-rule="nonzero"/><path fill="#f57a6b" d="M 180.664062 151.066406 C 180.664062 151.066406 178.039062 147.707031 180.414062 146.742188 C 183.550781 145.476562 188.492188 150.226562 186.882812 151.335938 C 185.277344 152.449219 180.664062 151.066406 180.664062 151.066406 " fill-opacity="1" fill-rule="nonzero"/><path fill="#ea4941" d="M 181.46875 149.605469 C 180.328125 148.714844 181.46875 147.453125 183.019531 148.015625 C 184.574219 148.578125 185.675781 149.925781 185.1875 150.082031 C 184.703125 150.242188 184.382812 148.960938 183.734375 149.472656 C 183.082031 149.988281 182.070312 150.078125 181.46875 149.605469 " fill-opacity="1" fill-rule="nonzero"/><path fill="#381216" d="M 179.957031 159.152344 C 180.722656 159.542969 181.601562 159.347656 181.917969 158.722656 C 182.234375 158.09375 181.867188 157.273438 181.101562 156.886719 C 180.335938 156.5 181.378906 157.664062 181.0625 158.289062 C 180.742188 158.914062 179.1875 158.765625 179.957031 159.152344 " fill-opacity="1" fill-rule="nonzero"/><path fill="#381216" d="M 178.699219 167.980469 C 179.554688 168.039062 180.289062 167.53125 180.335938 166.84375 C 180.382812 166.160156 179.730469 165.554688 178.871094 165.496094 C 178.011719 165.4375 179.425781 166.09375 179.378906 166.777344 C 179.332031 167.464844 177.839844 167.921875 178.699219 167.980469 " fill-opacity="1" fill-rule="nonzero"/><path fill="#e24f4c" d="M 185.558594 165.433594 C 185 165.433594 184.335938 165.066406 183.546875 164.628906 C 182.585938 164.097656 181.394531 163.4375 179.988281 163.179688 C 179.816406 163.148438 179.699219 162.984375 179.734375 162.808594 C 179.765625 162.640625 179.929688 162.523438 180.101562 162.554688 C 181.609375 162.832031 182.855469 163.519531 183.851562 164.074219 C 184.699219 164.542969 185.429688 164.945312 185.769531 164.746094 C 186.53125 164.296875 186.238281 163.050781 186.238281 163.039062 C 186.195312 162.871094 186.300781 162.695312 186.46875 162.65625 C 186.632812 162.636719 186.8125 162.71875 186.855469 162.886719 C 186.871094 162.957031 187.257812 164.601562 186.089844 165.296875 C 185.925781 165.390625 185.75 165.433594 185.558594 165.433594 " fill-opacity="1" fill-rule="nonzero"/><path fill="#e24f4c" d="M 190.085938 166.144531 C 189.953125 166.144531 189.832031 166.0625 189.785156 165.925781 C 189.777344 165.90625 189.21875 164.078125 191.257812 162.796875 C 191.402344 162.695312 191.597656 162.746094 191.691406 162.894531 C 191.785156 163.042969 191.742188 163.238281 191.589844 163.332031 C 189.96875 164.355469 190.382812 165.71875 190.390625 165.734375 C 190.441406 165.898438 190.351562 166.078125 190.183594 166.132812 C 190.152344 166.140625 190.121094 166.144531 190.085938 166.144531 " fill-opacity="1" fill-rule="nonzero"/><path fill="#5d262b" d="M 180.183594 154.0625 C 177.738281 156.421875 177.265625 158.492188 176.726562 158.636719 C 176.1875 158.785156 176.515625 156.730469 178.371094 155.117188 C 179.417969 154.207031 180.183594 154.0625 180.183594 154.0625 " fill-opacity="1" fill-rule="nonzero"/><path fill="#1d223e" d="M 174.203125 171.136719 C 178.636719 170.40625 171.25 160.605469 171.25 160.605469 C 171.25 160.605469 178.222656 153.929688 179.421875 149.871094 C 181.007812 144.507812 168.875 137.800781 160 151.113281 C 152.785156 161.929688 166.617188 172.390625 174.203125 171.136719 " fill-opacity="1" fill-rule="nonzero"/><path fill="#a3c9ed" d="M 177.335938 173.210938 L 122.582031 173.210938 L 115.921875 135.046875 C 115.738281 133.984375 116.5 133 117.507812 133 L 168.980469 133 C 169.757812 133 170.421875 133.59375 170.566406 134.410156 L 177.335938 173.210938 " fill-opacity="1" fill-rule="nonzero"/><path fill="#35508c" d="M 197.558594 176.746094 L 122.582031 176.746094 L 122.582031 173.210938 L 195.265625 173.210938 C 196.164062 173.210938 196.945312 173.875 197.144531 174.816406 L 197.558594 176.746094 " fill-opacity="1" fill-rule="nonzero"/><path fill="#679fdb" d="M 150.25 149.554688 C 150.25 150.140625 147.414062 150.621094 143.917969 150.621094 C 140.425781 150.621094 137.589844 150.140625 137.589844 149.554688 C 137.589844 148.960938 140.425781 148.484375 143.917969 148.484375 C 147.414062 148.484375 150.25 148.960938 150.25 149.554688 " fill-opacity="1" fill-rule="nonzero"/><path fill="#f57a6b" d="M 177.59375 173.210938 C 181.210938 168.648438 187.761719 168.515625 190.761719 168.503906 C 193.757812 168.492188 197.558594 171.617188 197.558594 171.617188 L 197.378906 176.613281 C 197.378906 176.613281 183.675781 175.257812 177.59375 173.210938 " fill-opacity="1" fill-rule="nonzero"/><path fill="#e24f4c" d="M 185.082031 168.984375 L 184.988281 168.457031 C 185.089844 168.441406 187.613281 168 191.320312 168.277344 L 191.28125 168.8125 C 187.636719 168.527344 185.109375 168.976562 185.082031 168.984375 " fill-opacity="1" fill-rule="nonzero"/><path fill="#fae667" d="M 197.378906 176.945312 C 197.25 176.945312 197.128906 176.871094 197.074219 176.746094 C 197.007812 176.605469 195.589844 173.277344 197.539062 170.996094 C 197.660156 170.855469 197.871094 170.84375 198.011719 170.960938 C 198.152344 171.078125 198.171875 171.292969 198.046875 171.433594 C 196.375 173.390625 197.671875 176.449219 197.6875 176.476562 C 197.757812 176.648438 197.683594 176.84375 197.515625 176.917969 C 197.46875 176.9375 197.425781 176.945312 197.378906 176.945312 " fill-opacity="1" fill-rule="nonzero"/><path fill="#e24f4c" d="M 187.023438 171.484375 C 186.128906 171.484375 183.058594 171.46875 180.023438 171.25 L 180.066406 170.714844 C 183.632812 170.972656 187.253906 170.949219 187.277344 170.949219 L 187.28125 171.484375 C 187.277344 171.484375 187.1875 171.484375 187.023438 171.484375 " fill-opacity="1" fill-rule="nonzero"/><path fill="#e24f4c" d="M 184.957031 173.375 C 184.109375 173.375 181.199219 173.320312 178.277344 172.636719 L 178.398438 172.117188 C 181.792969 172.910156 185.140625 172.835938 185.1875 172.835938 L 185.203125 173.371094 C 185.195312 173.371094 185.109375 173.375 184.957031 173.375 " fill-opacity="1" fill-rule="nonzero"/><path fill="#e24f4c" d="M 181.804688 170.316406 L 181.734375 169.78125 C 181.773438 169.777344 186.089844 169.191406 188.949219 169.28125 L 188.933594 169.816406 C 186.148438 169.742188 181.847656 170.308594 181.804688 170.316406 " fill-opacity="1" fill-rule="nonzero"/><path fill="#eea92c" d="M 225.210938 166.800781 C 225 165.730469 225.179688 164.773438 225.753906 163.960938 C 226.398438 163.046875 227.414062 162.476562 228.304688 162.128906 C 227.785156 161.996094 227.28125 161.777344 226.953125 161.394531 C 226.640625 161.035156 226.53125 160.570312 226.628906 160.058594 C 226.757812 159.398438 225.734375 158.761719 224.554688 158.023438 C 222.8125 156.945312 220.652344 155.59375 220.289062 153.152344 L 220.953125 153.058594 C 221.265625 155.1875 223.285156 156.449219 224.910156 157.457031 C 226.300781 158.324219 227.507812 159.074219 227.289062 160.1875 C 227.226562 160.5 227.285156 160.753906 227.457031 160.957031 C 228.007812 161.59375 229.59375 161.671875 230.097656 161.636719 L 230.164062 162.304688 C 230.140625 162.308594 227.445312 162.726562 226.300781 164.34375 C 225.839844 165.003906 225.695312 165.789062 225.867188 166.671875 L 225.210938 166.800781 " fill-opacity="1" fill-rule="nonzero"/><path fill="#eea92c" d="M 239.65625 194.347656 C 265.945312 195.238281 264.539062 207.371094 264.539062 207.371094 C 264.539062 207.371094 266.121094 207.9375 267.90625 206.597656 C 269.6875 205.257812 266.371094 199.8125 267.003906 198.789062 C 267.636719 197.761719 271.113281 194.414062 267.847656 192.675781 C 264.578125 190.941406 239.65625 194.347656 239.65625 194.347656 " fill-opacity="1" fill-rule="nonzero"/><path fill="#352d71" d="M 264.390625 208.207031 C 264.066406 209.976562 263.605469 211.789062 262.960938 213.566406 C 258.210938 210.800781 245.089844 204.578125 217.019531 200.152344 C 217.019531 200.148438 217.019531 200.152344 217.019531 200.148438 C 219.71875 198.523438 222.476562 197.117188 225.367188 196.074219 L 255.957031 195.429688 L 261.628906 200.34375 C 263.878906 202.292969 264.933594 205.28125 264.390625 208.207031 " fill-opacity="1" fill-rule="nonzero"/><g clip-path="url(#7fde5fcd34)"><path fill="#fab8b9" d="M 355.628906 191.375 L 24.644531 191.375 C 22.234375 191.375 20.285156 189.421875 20.285156 187.015625 L 20.285156 181.109375 C 20.285156 178.699219 22.234375 176.746094 24.644531 176.746094 L 355.628906 176.746094 C 358.035156 176.746094 359.992188 178.699219 359.992188 181.109375 L 359.992188 187.015625 C 359.992188 189.421875 358.035156 191.375 355.628906 191.375 " fill-opacity="1" fill-rule="nonzero"/></g><path fill="#4c2c44" d="M 45.046875 317.210938 C 44.964844 317.210938 44.875 317.199219 44.792969 317.1875 C 43.8125 317.050781 43.128906 316.148438 43.273438 315.167969 L 59.78125 199.21875 C 59.921875 198.238281 60.84375 197.558594 61.804688 197.699219 C 62.785156 197.835938 63.46875 198.742188 63.324219 199.71875 L 46.8125 315.671875 C 46.6875 316.5625 45.925781 317.210938 45.046875 317.210938 " fill-opacity="1" fill-rule="nonzero"/><path fill="#4c2c44" d="M 45.046875 317.210938 C 44.964844 317.210938 44.875 317.199219 44.792969 317.1875 C 43.8125 317.050781 43.128906 316.148438 43.273438 315.167969 L 59.78125 199.21875 C 59.921875 198.238281 60.84375 197.558594 61.804688 197.699219 C 62.785156 197.835938 63.46875 198.742188 63.324219 199.71875 L 46.8125 315.671875 C 46.6875 316.5625 45.925781 317.210938 45.046875 317.210938 " fill-opacity="1" fill-rule="nonzero"/><path fill="#4c2c44" d="M 87.914062 302.179688 C 87.007812 302.179688 86.226562 301.488281 86.136719 300.5625 L 76.234375 199.644531 C 76.136719 198.660156 76.855469 197.785156 77.84375 197.6875 C 78.785156 197.597656 79.699219 198.308594 79.792969 199.296875 L 89.699219 300.214844 C 89.796875 301.199219 89.078125 302.074219 88.09375 302.171875 C 88.035156 302.175781 87.972656 302.179688 87.914062 302.179688 " fill-opacity="1" fill-rule="nonzero"/><path fill="#4c2c44" d="M 298.195312 317.210938 C 298.183594 317.210938 298.167969 317.210938 298.15625 317.210938 C 297.167969 317.1875 296.382812 316.363281 296.40625 315.378906 L 299.011719 199.429688 C 299.03125 198.457031 299.832031 197.679688 300.800781 197.679688 C 300.8125 197.679688 300.828125 197.679688 300.839844 197.679688 C 301.828125 197.703125 302.613281 198.523438 302.59375 199.507812 L 299.984375 315.457031 C 299.964844 316.433594 299.164062 317.210938 298.195312 317.210938 " fill-opacity="1" fill-rule="nonzero"/><path fill="#4c2c44" d="M 335.902344 302.179688 C 335.0625 302.179688 334.3125 301.585938 334.144531 300.730469 L 314.480469 199.8125 C 314.292969 198.84375 314.925781 197.902344 315.894531 197.710938 C 316.855469 197.523438 317.804688 198.152344 317.996094 199.128906 L 337.664062 300.050781 C 337.851562 301.015625 337.21875 301.957031 336.246094 302.148438 C 336.128906 302.171875 336.015625 302.179688 335.902344 302.179688 " fill-opacity="1" fill-rule="nonzero"/><g clip-path="url(#c66cf0693b)"><path fill="#f89a9c" d="M 359.996094 178.9375 L 359.996094 189.171875 C 359.996094 190.390625 358.992188 191.390625 357.773438 191.390625 L 286.480469 191.390625 C 285.261719 191.390625 284.296875 190.390625 284.296875 189.171875 L 284.296875 178.9375 C 284.296875 177.71875 285.261719 176.753906 286.480469 176.753906 L 357.773438 176.753906 C 358.992188 176.753906 359.996094 177.71875 359.996094 178.9375 " fill-opacity="1" fill-rule="nonzero"/></g><path fill="#4c2c44" d="M 322.132812 199.46875 L 59.164062 199.46875 C 57.269531 199.46875 55.738281 197.933594 55.738281 196.042969 L 55.738281 194.804688 C 55.738281 192.910156 57.269531 191.375 59.164062 191.375 L 322.132812 191.375 C 324.023438 191.375 325.558594 192.910156 325.558594 194.804688 L 325.558594 196.042969 C 325.558594 197.933594 324.023438 199.46875 322.132812 199.46875 " fill-opacity="1" fill-rule="nonzero"/><path fill="#3d2238" d="M 322.34375 199.46875 L 307.5 199.46875 C 305.722656 199.46875 304.285156 198.03125 304.285156 196.253906 L 304.285156 194.589844 C 304.285156 192.816406 305.722656 191.375 307.5 191.375 L 322.34375 191.375 C 324.117188 191.375 325.558594 192.816406 325.558594 194.589844 L 325.558594 196.253906 C 325.558594 198.03125 324.117188 199.46875 322.34375 199.46875 " fill-opacity="1" fill-rule="nonzero"/><g clip-path="url(#9c403e7dde)"><path fill="#a3c9ed" d="M 216.484375 322.28125 L 239.453125 315.535156 L 266.933594 321.167969 L 244.449219 329.085938 L 216.484375 322.28125 " fill-opacity="1" fill-rule="nonzero"/></g><path fill="#fcd75f" d="M 75.734375 312.320312 L 100.113281 306.0625 L 124.492188 313.382812 L 99.289062 320.140625 L 75.734375 312.320312 " fill-opacity="1" fill-rule="nonzero"/><path fill="#f1497e" d="M 152.964844 73.089844 C 149.707031 85.902344 157.453125 98.925781 170.269531 102.183594 C 183.085938 105.441406 196.113281 97.691406 199.371094 84.882812 C 202.628906 72.074219 194.882812 59.046875 182.0625 55.792969 C 169.25 52.535156 156.21875 60.28125 152.964844 73.089844 " fill-opacity="1" fill-rule="nonzero"/><path fill="#f1497e" d="M 191.4375 115.277344 C 191.4375 118.8125 188.566406 121.675781 185.035156 121.675781 C 181.5 121.675781 178.632812 118.8125 178.632812 115.277344 C 178.632812 111.742188 181.5 108.878906 185.035156 108.878906 C 188.566406 108.878906 191.4375 111.742188 191.4375 115.277344 " fill-opacity="1" fill-rule="nonzero"/><path fill="#ffffff" d="M 166.515625 85.171875 L 190.238281 85.171875 L 190.238281 73.886719 L 166.515625 73.886719 Z M 190.910156 86.511719 L 165.84375 86.511719 C 165.472656 86.511719 165.175781 86.210938 165.175781 85.839844 L 165.175781 73.21875 C 165.175781 72.847656 165.472656 72.546875 165.84375 72.546875 L 190.910156 72.546875 C 191.28125 72.546875 191.578125 72.847656 191.578125 73.21875 L 191.578125 85.839844 C 191.578125 86.210938 191.28125 86.511719 190.910156 86.511719 " fill-opacity="1" fill-rule="nonzero"/><path fill="#ffffff" d="M 165.847656 84.972656 L 162.417969 84.972656 L 162.417969 74.175781 L 165.847656 74.175781 L 165.847656 84.972656 " fill-opacity="1" fill-rule="nonzero"/><path fill="#ffffff" d="M 188.347656 83.039062 L 184.632812 83.039062 L 184.632812 76.019531 L 188.347656 76.019531 L 188.347656 83.039062 " fill-opacity="1" fill-rule="nonzero"/></svg>